G04 EAGLE Gerber RS-274X export*
G75*
%MOMM*%
%FSLAX34Y34*%
%LPD*%
%INCopper Layer 2*%
%IPPOS*%
%AMOC8*
5,1,8,0,0,1.08239X$1,22.5*%
G01*
%ADD10C,1.288000*%
%ADD11C,3.220000*%
%ADD12C,1.400000*%
%ADD13C,1.960000*%
%ADD14C,1.244600*%
%ADD15C,4.016000*%
%ADD16C,4.191000*%
%ADD17C,0.609600*%

G36*
X1266308Y2556D02*
X1266308Y2556D01*
X1266427Y2563D01*
X1266465Y2576D01*
X1266506Y2581D01*
X1266616Y2624D01*
X1266729Y2661D01*
X1266764Y2683D01*
X1266801Y2698D01*
X1266897Y2767D01*
X1266998Y2831D01*
X1267026Y2861D01*
X1267059Y2884D01*
X1267135Y2976D01*
X1267216Y3063D01*
X1267236Y3098D01*
X1267261Y3129D01*
X1267312Y3237D01*
X1267370Y3341D01*
X1267380Y3381D01*
X1267397Y3417D01*
X1267419Y3534D01*
X1267449Y3649D01*
X1267453Y3709D01*
X1267457Y3729D01*
X1267455Y3750D01*
X1267459Y3810D01*
X1267459Y1012190D01*
X1267444Y1012308D01*
X1267437Y1012427D01*
X1267424Y1012465D01*
X1267419Y1012506D01*
X1267376Y1012616D01*
X1267339Y1012729D01*
X1267317Y1012764D01*
X1267302Y1012801D01*
X1267233Y1012897D01*
X1267169Y1012998D01*
X1267139Y1013026D01*
X1267116Y1013059D01*
X1267024Y1013135D01*
X1266937Y1013216D01*
X1266902Y1013236D01*
X1266871Y1013261D01*
X1266763Y1013312D01*
X1266659Y1013370D01*
X1266619Y1013380D01*
X1266583Y1013397D01*
X1266466Y1013419D01*
X1266351Y1013449D01*
X1266291Y1013453D01*
X1266271Y1013457D01*
X1266250Y1013455D01*
X1266190Y1013459D01*
X3810Y1013459D01*
X3692Y1013444D01*
X3573Y1013437D01*
X3535Y1013424D01*
X3494Y1013419D01*
X3384Y1013376D01*
X3271Y1013339D01*
X3236Y1013317D01*
X3199Y1013302D01*
X3103Y1013233D01*
X3002Y1013169D01*
X2974Y1013139D01*
X2941Y1013116D01*
X2865Y1013024D01*
X2784Y1012937D01*
X2764Y1012902D01*
X2739Y1012871D01*
X2688Y1012763D01*
X2630Y1012659D01*
X2620Y1012619D01*
X2603Y1012583D01*
X2581Y1012466D01*
X2551Y1012351D01*
X2547Y1012291D01*
X2543Y1012271D01*
X2545Y1012250D01*
X2541Y1012190D01*
X2541Y3810D01*
X2556Y3692D01*
X2563Y3573D01*
X2576Y3535D01*
X2581Y3494D01*
X2624Y3384D01*
X2661Y3271D01*
X2683Y3236D01*
X2698Y3199D01*
X2767Y3103D01*
X2831Y3002D01*
X2861Y2974D01*
X2884Y2941D01*
X2976Y2865D01*
X3063Y2784D01*
X3098Y2764D01*
X3129Y2739D01*
X3237Y2688D01*
X3341Y2630D01*
X3381Y2620D01*
X3417Y2603D01*
X3534Y2581D01*
X3649Y2551D01*
X3709Y2547D01*
X3729Y2543D01*
X3750Y2545D01*
X3810Y2541D01*
X1266190Y2541D01*
X1266308Y2556D01*
G37*
%LPC*%
G36*
X1227226Y954404D02*
X1227226Y954404D01*
X1218591Y957981D01*
X1211981Y964591D01*
X1208404Y973226D01*
X1208404Y982574D01*
X1211981Y991209D01*
X1218591Y997819D01*
X1227226Y1001396D01*
X1236574Y1001396D01*
X1245209Y997819D01*
X1251819Y991209D01*
X1255396Y982574D01*
X1255396Y973226D01*
X1251819Y964591D01*
X1245209Y957981D01*
X1236574Y954404D01*
X1227226Y954404D01*
G37*
%LPD*%
%LPC*%
G36*
X33426Y954404D02*
X33426Y954404D01*
X24791Y957981D01*
X18181Y964591D01*
X14604Y973226D01*
X14604Y982574D01*
X18181Y991209D01*
X24791Y997819D01*
X33426Y1001396D01*
X42774Y1001396D01*
X51409Y997819D01*
X58019Y991209D01*
X61596Y982574D01*
X61596Y973226D01*
X58019Y964591D01*
X51409Y957981D01*
X42774Y954404D01*
X33426Y954404D01*
G37*
%LPD*%
%LPC*%
G36*
X1227226Y14604D02*
X1227226Y14604D01*
X1218591Y18181D01*
X1211981Y24791D01*
X1208404Y33426D01*
X1208404Y42774D01*
X1211981Y51409D01*
X1218591Y58019D01*
X1227226Y61596D01*
X1236574Y61596D01*
X1245209Y58019D01*
X1251819Y51409D01*
X1255396Y42774D01*
X1255396Y33426D01*
X1251819Y24791D01*
X1245209Y18181D01*
X1236574Y14604D01*
X1227226Y14604D01*
G37*
%LPD*%
%LPC*%
G36*
X33426Y14604D02*
X33426Y14604D01*
X24791Y18181D01*
X18181Y24791D01*
X14604Y33426D01*
X14604Y42774D01*
X18181Y51409D01*
X24791Y58019D01*
X33426Y61596D01*
X42774Y61596D01*
X51409Y58019D01*
X58019Y51409D01*
X61596Y42774D01*
X61596Y33426D01*
X58019Y24791D01*
X51409Y18181D01*
X42774Y14604D01*
X33426Y14604D01*
G37*
%LPD*%
%LPC*%
G36*
X122500Y923529D02*
X122500Y923529D01*
X114186Y926973D01*
X107823Y933336D01*
X104379Y941650D01*
X104379Y950650D01*
X107823Y958964D01*
X114186Y965327D01*
X122500Y968771D01*
X131500Y968771D01*
X139814Y965327D01*
X146177Y958964D01*
X149621Y950650D01*
X149621Y941650D01*
X146177Y933336D01*
X139814Y926973D01*
X131500Y923529D01*
X122500Y923529D01*
G37*
%LPD*%
%LPC*%
G36*
X884500Y352029D02*
X884500Y352029D01*
X876186Y355473D01*
X869823Y361836D01*
X866379Y370150D01*
X866379Y379150D01*
X869823Y387464D01*
X876186Y393827D01*
X884500Y397271D01*
X893500Y397271D01*
X901814Y393827D01*
X908177Y387464D01*
X911621Y379150D01*
X911621Y370150D01*
X908177Y361836D01*
X901814Y355473D01*
X893500Y352029D01*
X884500Y352029D01*
G37*
%LPD*%
%LPC*%
G36*
X122500Y352029D02*
X122500Y352029D01*
X114186Y355473D01*
X107823Y361836D01*
X104379Y370150D01*
X104379Y379150D01*
X107823Y387464D01*
X114186Y393827D01*
X122500Y397271D01*
X131500Y397271D01*
X139814Y393827D01*
X146177Y387464D01*
X149621Y379150D01*
X149621Y370150D01*
X146177Y361836D01*
X139814Y355473D01*
X131500Y352029D01*
X122500Y352029D01*
G37*
%LPD*%
%LPC*%
G36*
X884500Y923529D02*
X884500Y923529D01*
X876186Y926973D01*
X869823Y933336D01*
X866379Y941650D01*
X866379Y950650D01*
X869823Y958964D01*
X876186Y965327D01*
X884500Y968771D01*
X893500Y968771D01*
X901814Y965327D01*
X908177Y958964D01*
X911621Y950650D01*
X911621Y941650D01*
X908177Y933336D01*
X901814Y926973D01*
X893500Y923529D01*
X884500Y923529D01*
G37*
%LPD*%
%LPC*%
G36*
X521702Y109199D02*
X521702Y109199D01*
X514851Y112037D01*
X509607Y117281D01*
X506769Y124132D01*
X506769Y131548D01*
X509607Y138399D01*
X514851Y143643D01*
X521702Y146481D01*
X529118Y146481D01*
X535969Y143643D01*
X541213Y138399D01*
X544051Y131548D01*
X544051Y124132D01*
X541213Y117281D01*
X535969Y112037D01*
X529118Y109199D01*
X521702Y109199D01*
G37*
%LPD*%
%LPC*%
G36*
X653102Y109199D02*
X653102Y109199D01*
X646251Y112037D01*
X641007Y117281D01*
X638169Y124132D01*
X638169Y131548D01*
X641007Y138399D01*
X646251Y143643D01*
X653102Y146481D01*
X660518Y146481D01*
X667369Y143643D01*
X672613Y138399D01*
X675451Y131548D01*
X675451Y124132D01*
X672613Y117281D01*
X667369Y112037D01*
X660518Y109199D01*
X653102Y109199D01*
G37*
%LPD*%
%LPC*%
G36*
X137508Y156559D02*
X137508Y156559D01*
X131980Y158849D01*
X127749Y163080D01*
X125459Y168608D01*
X125459Y174592D01*
X127749Y180120D01*
X131980Y184351D01*
X137508Y186641D01*
X143492Y186641D01*
X149020Y184351D01*
X153251Y180120D01*
X155541Y174592D01*
X155541Y168608D01*
X153251Y163080D01*
X149020Y158849D01*
X143492Y156559D01*
X137508Y156559D01*
G37*
%LPD*%
%LPC*%
G36*
X237508Y156559D02*
X237508Y156559D01*
X231980Y158849D01*
X227749Y163080D01*
X225459Y168608D01*
X225459Y174592D01*
X227749Y180120D01*
X231980Y184351D01*
X237508Y186641D01*
X243492Y186641D01*
X249020Y184351D01*
X253251Y180120D01*
X255541Y174592D01*
X255541Y168608D01*
X253251Y163080D01*
X249020Y158849D01*
X243492Y156559D01*
X237508Y156559D01*
G37*
%LPD*%
%LPC*%
G36*
X872508Y156559D02*
X872508Y156559D01*
X866980Y158849D01*
X862749Y163080D01*
X860459Y168608D01*
X860459Y174592D01*
X862749Y180120D01*
X866980Y184351D01*
X872508Y186641D01*
X878492Y186641D01*
X884020Y184351D01*
X888251Y180120D01*
X890541Y174592D01*
X890541Y168608D01*
X888251Y163080D01*
X884020Y158849D01*
X878492Y156559D01*
X872508Y156559D01*
G37*
%LPD*%
%LPC*%
G36*
X772508Y156559D02*
X772508Y156559D01*
X766980Y158849D01*
X762749Y163080D01*
X760459Y168608D01*
X760459Y174592D01*
X762749Y180120D01*
X766980Y184351D01*
X772508Y186641D01*
X778492Y186641D01*
X784020Y184351D01*
X788251Y180120D01*
X790541Y174592D01*
X790541Y168608D01*
X788251Y163080D01*
X784020Y158849D01*
X778492Y156559D01*
X772508Y156559D01*
G37*
%LPD*%
%LPC*%
G36*
X579324Y145959D02*
X579324Y145959D01*
X576023Y147326D01*
X573496Y149853D01*
X572129Y153154D01*
X572129Y156726D01*
X573496Y160027D01*
X576023Y162554D01*
X579324Y163921D01*
X582896Y163921D01*
X586197Y162554D01*
X588724Y160027D01*
X589937Y157097D01*
X590006Y156976D01*
X590071Y156853D01*
X590085Y156838D01*
X590095Y156820D01*
X590192Y156720D01*
X590285Y156618D01*
X590302Y156607D01*
X590316Y156592D01*
X590435Y156519D01*
X590551Y156443D01*
X590570Y156436D01*
X590587Y156426D01*
X590720Y156385D01*
X590852Y156340D01*
X590872Y156338D01*
X590891Y156332D01*
X591030Y156325D01*
X591169Y156314D01*
X591189Y156318D01*
X591209Y156317D01*
X591345Y156345D01*
X591482Y156369D01*
X591501Y156377D01*
X591520Y156381D01*
X591646Y156443D01*
X591772Y156499D01*
X591788Y156512D01*
X591806Y156521D01*
X591912Y156611D01*
X592020Y156698D01*
X592033Y156714D01*
X592048Y156727D01*
X592128Y156841D01*
X592212Y156952D01*
X592224Y156977D01*
X592231Y156987D01*
X592238Y157007D01*
X592283Y157097D01*
X593496Y160027D01*
X596023Y162554D01*
X599324Y163921D01*
X602896Y163921D01*
X606197Y162554D01*
X608724Y160027D01*
X610091Y156726D01*
X610091Y153154D01*
X608724Y149853D01*
X606197Y147326D01*
X602896Y145959D01*
X599324Y145959D01*
X596023Y147326D01*
X593496Y149853D01*
X592283Y152783D01*
X592214Y152904D01*
X592149Y153027D01*
X592135Y153042D01*
X592125Y153060D01*
X592028Y153160D01*
X591935Y153262D01*
X591918Y153274D01*
X591904Y153288D01*
X591786Y153361D01*
X591669Y153437D01*
X591650Y153444D01*
X591633Y153454D01*
X591500Y153495D01*
X591368Y153540D01*
X591348Y153542D01*
X591329Y153548D01*
X591190Y153555D01*
X591051Y153566D01*
X591031Y153562D01*
X591011Y153563D01*
X590875Y153535D01*
X590738Y153511D01*
X590719Y153503D01*
X590700Y153499D01*
X590575Y153438D01*
X590448Y153381D01*
X590432Y153368D01*
X590414Y153359D01*
X590308Y153269D01*
X590200Y153182D01*
X590187Y153166D01*
X590172Y153153D01*
X590092Y153039D01*
X590008Y152928D01*
X589996Y152903D01*
X589989Y152893D01*
X589982Y152873D01*
X589937Y152783D01*
X588724Y149853D01*
X586197Y147326D01*
X582896Y145959D01*
X579324Y145959D01*
G37*
%LPD*%
%LPC*%
G36*
X1014545Y304759D02*
X1014545Y304759D01*
X1010010Y306638D01*
X1006538Y310110D01*
X1004659Y314645D01*
X1004659Y319555D01*
X1006538Y324090D01*
X1010010Y327562D01*
X1014545Y329441D01*
X1019455Y329441D01*
X1023990Y327562D01*
X1027462Y324090D01*
X1029341Y319555D01*
X1029341Y314645D01*
X1027462Y310110D01*
X1023990Y306638D01*
X1019455Y304759D01*
X1014545Y304759D01*
G37*
%LPD*%
%LPC*%
G36*
X1139545Y596859D02*
X1139545Y596859D01*
X1135010Y598738D01*
X1131538Y602210D01*
X1129659Y606745D01*
X1129659Y611655D01*
X1131538Y616190D01*
X1135010Y619662D01*
X1139545Y621541D01*
X1144455Y621541D01*
X1148990Y619662D01*
X1152462Y616190D01*
X1154341Y611655D01*
X1154341Y606745D01*
X1152462Y602210D01*
X1148990Y598738D01*
X1144455Y596859D01*
X1139545Y596859D01*
G37*
%LPD*%
%LPC*%
G36*
X1014545Y596859D02*
X1014545Y596859D01*
X1010010Y598738D01*
X1006538Y602210D01*
X1004659Y606745D01*
X1004659Y611655D01*
X1006538Y616190D01*
X1010010Y619662D01*
X1014545Y621541D01*
X1019455Y621541D01*
X1023990Y619662D01*
X1027462Y616190D01*
X1029341Y611655D01*
X1029341Y606745D01*
X1027462Y602210D01*
X1023990Y598738D01*
X1019455Y596859D01*
X1014545Y596859D01*
G37*
%LPD*%
%LPC*%
G36*
X1139545Y304759D02*
X1139545Y304759D01*
X1135010Y306638D01*
X1131538Y310110D01*
X1129659Y314645D01*
X1129659Y319555D01*
X1131538Y324090D01*
X1135010Y327562D01*
X1139545Y329441D01*
X1144455Y329441D01*
X1148990Y327562D01*
X1152462Y324090D01*
X1154341Y319555D01*
X1154341Y314645D01*
X1152462Y310110D01*
X1148990Y306638D01*
X1144455Y304759D01*
X1139545Y304759D01*
G37*
%LPD*%
%LPC*%
G36*
X163602Y92059D02*
X163602Y92059D01*
X160096Y93512D01*
X157412Y96196D01*
X155959Y99702D01*
X155959Y103498D01*
X157412Y107004D01*
X160096Y109688D01*
X163602Y111141D01*
X167398Y111141D01*
X170904Y109688D01*
X173588Y107004D01*
X175041Y103498D01*
X175041Y99702D01*
X173588Y96196D01*
X170904Y93512D01*
X167398Y92059D01*
X163602Y92059D01*
G37*
%LPD*%
%LPC*%
G36*
X188602Y92059D02*
X188602Y92059D01*
X185096Y93512D01*
X182412Y96196D01*
X180959Y99702D01*
X180959Y103498D01*
X182412Y107004D01*
X185096Y109688D01*
X188602Y111141D01*
X192398Y111141D01*
X195904Y109688D01*
X198588Y107004D01*
X200041Y103498D01*
X200041Y99702D01*
X198588Y96196D01*
X195904Y93512D01*
X192398Y92059D01*
X188602Y92059D01*
G37*
%LPD*%
%LPC*%
G36*
X213602Y92059D02*
X213602Y92059D01*
X210096Y93512D01*
X207412Y96196D01*
X205959Y99702D01*
X205959Y103498D01*
X207412Y107004D01*
X210096Y109688D01*
X213602Y111141D01*
X217398Y111141D01*
X220904Y109688D01*
X223588Y107004D01*
X225041Y103498D01*
X225041Y99702D01*
X223588Y96196D01*
X220904Y93512D01*
X217398Y92059D01*
X213602Y92059D01*
G37*
%LPD*%
%LPC*%
G36*
X798602Y92059D02*
X798602Y92059D01*
X795096Y93512D01*
X792412Y96196D01*
X790959Y99702D01*
X790959Y103498D01*
X792412Y107004D01*
X795096Y109688D01*
X798602Y111141D01*
X802398Y111141D01*
X805904Y109688D01*
X808588Y107004D01*
X810041Y103498D01*
X810041Y99702D01*
X808588Y96196D01*
X805904Y93512D01*
X802398Y92059D01*
X798602Y92059D01*
G37*
%LPD*%
%LPC*%
G36*
X823602Y92059D02*
X823602Y92059D01*
X820096Y93512D01*
X817412Y96196D01*
X815959Y99702D01*
X815959Y103498D01*
X817412Y107004D01*
X820096Y109688D01*
X823602Y111141D01*
X827398Y111141D01*
X830904Y109688D01*
X833588Y107004D01*
X835041Y103498D01*
X835041Y99702D01*
X833588Y96196D01*
X830904Y93512D01*
X827398Y92059D01*
X823602Y92059D01*
G37*
%LPD*%
%LPC*%
G36*
X848602Y92059D02*
X848602Y92059D01*
X845096Y93512D01*
X842412Y96196D01*
X840959Y99702D01*
X840959Y103498D01*
X842412Y107004D01*
X845096Y109688D01*
X848602Y111141D01*
X852398Y111141D01*
X855904Y109688D01*
X858588Y107004D01*
X860041Y103498D01*
X860041Y99702D01*
X858588Y96196D01*
X855904Y93512D01*
X852398Y92059D01*
X848602Y92059D01*
G37*
%LPD*%
%LPC*%
G36*
X125102Y790559D02*
X125102Y790559D01*
X121596Y792012D01*
X118912Y794696D01*
X117459Y798202D01*
X117459Y801998D01*
X118912Y805504D01*
X121596Y808188D01*
X125102Y809641D01*
X128898Y809641D01*
X132404Y808188D01*
X135088Y805504D01*
X136541Y801998D01*
X136541Y798202D01*
X135088Y794696D01*
X132404Y792012D01*
X128898Y790559D01*
X125102Y790559D01*
G37*
%LPD*%
%LPC*%
G36*
X887102Y790559D02*
X887102Y790559D01*
X883596Y792012D01*
X880912Y794696D01*
X879459Y798202D01*
X879459Y801998D01*
X880912Y805504D01*
X883596Y808188D01*
X887102Y809641D01*
X890898Y809641D01*
X894404Y808188D01*
X897088Y805504D01*
X898541Y801998D01*
X898541Y798202D01*
X897088Y794696D01*
X894404Y792012D01*
X890898Y790559D01*
X887102Y790559D01*
G37*
%LPD*%
%LPC*%
G36*
X125102Y815959D02*
X125102Y815959D01*
X121596Y817412D01*
X118912Y820096D01*
X117459Y823602D01*
X117459Y827398D01*
X118912Y830904D01*
X121596Y833588D01*
X125102Y835041D01*
X128898Y835041D01*
X132404Y833588D01*
X135088Y830904D01*
X136541Y827398D01*
X136541Y823602D01*
X135088Y820096D01*
X132404Y817412D01*
X128898Y815959D01*
X125102Y815959D01*
G37*
%LPD*%
%LPC*%
G36*
X887102Y663559D02*
X887102Y663559D01*
X883596Y665012D01*
X880912Y667696D01*
X879459Y671202D01*
X879459Y674998D01*
X880912Y678504D01*
X883596Y681188D01*
X887102Y682641D01*
X890898Y682641D01*
X894404Y681188D01*
X897088Y678504D01*
X898541Y674998D01*
X898541Y671202D01*
X897088Y667696D01*
X894404Y665012D01*
X890898Y663559D01*
X887102Y663559D01*
G37*
%LPD*%
%LPC*%
G36*
X887102Y815959D02*
X887102Y815959D01*
X883596Y817412D01*
X880912Y820096D01*
X879459Y823602D01*
X879459Y827398D01*
X880912Y830904D01*
X883596Y833588D01*
X887102Y835041D01*
X890898Y835041D01*
X894404Y833588D01*
X897088Y830904D01*
X898541Y827398D01*
X898541Y823602D01*
X897088Y820096D01*
X894404Y817412D01*
X890898Y815959D01*
X887102Y815959D01*
G37*
%LPD*%
%LPC*%
G36*
X125102Y841359D02*
X125102Y841359D01*
X121596Y842812D01*
X118912Y845496D01*
X117459Y849002D01*
X117459Y852798D01*
X118912Y856304D01*
X121596Y858988D01*
X125102Y860441D01*
X128898Y860441D01*
X132404Y858988D01*
X135088Y856304D01*
X136541Y852798D01*
X136541Y849002D01*
X135088Y845496D01*
X132404Y842812D01*
X128898Y841359D01*
X125102Y841359D01*
G37*
%LPD*%
%LPC*%
G36*
X887102Y841359D02*
X887102Y841359D01*
X883596Y842812D01*
X880912Y845496D01*
X879459Y849002D01*
X879459Y852798D01*
X880912Y856304D01*
X883596Y858988D01*
X887102Y860441D01*
X890898Y860441D01*
X894404Y858988D01*
X897088Y856304D01*
X898541Y852798D01*
X898541Y849002D01*
X897088Y845496D01*
X894404Y842812D01*
X890898Y841359D01*
X887102Y841359D01*
G37*
%LPD*%
%LPC*%
G36*
X125102Y866759D02*
X125102Y866759D01*
X121596Y868212D01*
X118912Y870896D01*
X117459Y874402D01*
X117459Y878198D01*
X118912Y881704D01*
X121596Y884388D01*
X125102Y885841D01*
X128898Y885841D01*
X132404Y884388D01*
X135088Y881704D01*
X136541Y878198D01*
X136541Y874402D01*
X135088Y870896D01*
X132404Y868212D01*
X128898Y866759D01*
X125102Y866759D01*
G37*
%LPD*%
%LPC*%
G36*
X125102Y765159D02*
X125102Y765159D01*
X121596Y766612D01*
X118912Y769296D01*
X117459Y772802D01*
X117459Y776598D01*
X118912Y780104D01*
X121596Y782788D01*
X125102Y784241D01*
X128898Y784241D01*
X132404Y782788D01*
X135088Y780104D01*
X136541Y776598D01*
X136541Y772802D01*
X135088Y769296D01*
X132404Y766612D01*
X128898Y765159D01*
X125102Y765159D01*
G37*
%LPD*%
%LPC*%
G36*
X887102Y765159D02*
X887102Y765159D01*
X883596Y766612D01*
X880912Y769296D01*
X879459Y772802D01*
X879459Y776598D01*
X880912Y780104D01*
X883596Y782788D01*
X887102Y784241D01*
X890898Y784241D01*
X894404Y782788D01*
X897088Y780104D01*
X898541Y776598D01*
X898541Y772802D01*
X897088Y769296D01*
X894404Y766612D01*
X890898Y765159D01*
X887102Y765159D01*
G37*
%LPD*%
%LPC*%
G36*
X887102Y866759D02*
X887102Y866759D01*
X883596Y868212D01*
X880912Y870896D01*
X879459Y874402D01*
X879459Y878198D01*
X880912Y881704D01*
X883596Y884388D01*
X887102Y885841D01*
X890898Y885841D01*
X894404Y884388D01*
X897088Y881704D01*
X898541Y878198D01*
X898541Y874402D01*
X897088Y870896D01*
X894404Y868212D01*
X890898Y866759D01*
X887102Y866759D01*
G37*
%LPD*%
%LPC*%
G36*
X887102Y714359D02*
X887102Y714359D01*
X883596Y715812D01*
X880912Y718496D01*
X879459Y722002D01*
X879459Y725798D01*
X880912Y729304D01*
X883596Y731988D01*
X887102Y733441D01*
X890898Y733441D01*
X894404Y731988D01*
X897088Y729304D01*
X898541Y725798D01*
X898541Y722002D01*
X897088Y718496D01*
X894404Y715812D01*
X890898Y714359D01*
X887102Y714359D01*
G37*
%LPD*%
%LPC*%
G36*
X125102Y714359D02*
X125102Y714359D01*
X121596Y715812D01*
X118912Y718496D01*
X117459Y722002D01*
X117459Y725798D01*
X118912Y729304D01*
X121596Y731988D01*
X125102Y733441D01*
X128898Y733441D01*
X132404Y731988D01*
X135088Y729304D01*
X136541Y725798D01*
X136541Y722002D01*
X135088Y718496D01*
X132404Y715812D01*
X128898Y714359D01*
X125102Y714359D01*
G37*
%LPD*%
%LPC*%
G36*
X125102Y892159D02*
X125102Y892159D01*
X121596Y893612D01*
X118912Y896296D01*
X117459Y899802D01*
X117459Y903598D01*
X118912Y907104D01*
X121596Y909788D01*
X125102Y911241D01*
X128898Y911241D01*
X132404Y909788D01*
X135088Y907104D01*
X136541Y903598D01*
X136541Y899802D01*
X135088Y896296D01*
X132404Y893612D01*
X128898Y892159D01*
X125102Y892159D01*
G37*
%LPD*%
%LPC*%
G36*
X125102Y409559D02*
X125102Y409559D01*
X121596Y411012D01*
X118912Y413696D01*
X117459Y417202D01*
X117459Y420998D01*
X118912Y424504D01*
X121596Y427188D01*
X125102Y428641D01*
X128898Y428641D01*
X132404Y427188D01*
X135088Y424504D01*
X136541Y420998D01*
X136541Y417202D01*
X135088Y413696D01*
X132404Y411012D01*
X128898Y409559D01*
X125102Y409559D01*
G37*
%LPD*%
%LPC*%
G36*
X125102Y434959D02*
X125102Y434959D01*
X121596Y436412D01*
X118912Y439096D01*
X117459Y442602D01*
X117459Y446398D01*
X118912Y449904D01*
X121596Y452588D01*
X125102Y454041D01*
X128898Y454041D01*
X132404Y452588D01*
X135088Y449904D01*
X136541Y446398D01*
X136541Y442602D01*
X135088Y439096D01*
X132404Y436412D01*
X128898Y434959D01*
X125102Y434959D01*
G37*
%LPD*%
%LPC*%
G36*
X887102Y434959D02*
X887102Y434959D01*
X883596Y436412D01*
X880912Y439096D01*
X879459Y442602D01*
X879459Y446398D01*
X880912Y449904D01*
X883596Y452588D01*
X887102Y454041D01*
X890898Y454041D01*
X894404Y452588D01*
X897088Y449904D01*
X898541Y446398D01*
X898541Y442602D01*
X897088Y439096D01*
X894404Y436412D01*
X890898Y434959D01*
X887102Y434959D01*
G37*
%LPD*%
%LPC*%
G36*
X125102Y460359D02*
X125102Y460359D01*
X121596Y461812D01*
X118912Y464496D01*
X117459Y468002D01*
X117459Y471798D01*
X118912Y475304D01*
X121596Y477988D01*
X125102Y479441D01*
X128898Y479441D01*
X132404Y477988D01*
X135088Y475304D01*
X136541Y471798D01*
X136541Y468002D01*
X135088Y464496D01*
X132404Y461812D01*
X128898Y460359D01*
X125102Y460359D01*
G37*
%LPD*%
%LPC*%
G36*
X887102Y460359D02*
X887102Y460359D01*
X883596Y461812D01*
X880912Y464496D01*
X879459Y468002D01*
X879459Y471798D01*
X880912Y475304D01*
X883596Y477988D01*
X887102Y479441D01*
X890898Y479441D01*
X894404Y477988D01*
X897088Y475304D01*
X898541Y471798D01*
X898541Y468002D01*
X897088Y464496D01*
X894404Y461812D01*
X890898Y460359D01*
X887102Y460359D01*
G37*
%LPD*%
%LPC*%
G36*
X887102Y892159D02*
X887102Y892159D01*
X883596Y893612D01*
X880912Y896296D01*
X879459Y899802D01*
X879459Y903598D01*
X880912Y907104D01*
X883596Y909788D01*
X887102Y911241D01*
X890898Y911241D01*
X894404Y909788D01*
X897088Y907104D01*
X898541Y903598D01*
X898541Y899802D01*
X897088Y896296D01*
X894404Y893612D01*
X890898Y892159D01*
X887102Y892159D01*
G37*
%LPD*%
%LPC*%
G36*
X125102Y485759D02*
X125102Y485759D01*
X121596Y487212D01*
X118912Y489896D01*
X117459Y493402D01*
X117459Y497198D01*
X118912Y500704D01*
X121596Y503388D01*
X125102Y504841D01*
X128898Y504841D01*
X132404Y503388D01*
X135088Y500704D01*
X136541Y497198D01*
X136541Y493402D01*
X135088Y489896D01*
X132404Y487212D01*
X128898Y485759D01*
X125102Y485759D01*
G37*
%LPD*%
%LPC*%
G36*
X887102Y485759D02*
X887102Y485759D01*
X883596Y487212D01*
X880912Y489896D01*
X879459Y493402D01*
X879459Y497198D01*
X880912Y500704D01*
X883596Y503388D01*
X887102Y504841D01*
X890898Y504841D01*
X894404Y503388D01*
X897088Y500704D01*
X898541Y497198D01*
X898541Y493402D01*
X897088Y489896D01*
X894404Y487212D01*
X890898Y485759D01*
X887102Y485759D01*
G37*
%LPD*%
%LPC*%
G36*
X125102Y511159D02*
X125102Y511159D01*
X121596Y512612D01*
X118912Y515296D01*
X117459Y518802D01*
X117459Y522598D01*
X118912Y526104D01*
X121596Y528788D01*
X125102Y530241D01*
X128898Y530241D01*
X132404Y528788D01*
X135088Y526104D01*
X136541Y522598D01*
X136541Y518802D01*
X135088Y515296D01*
X132404Y512612D01*
X128898Y511159D01*
X125102Y511159D01*
G37*
%LPD*%
%LPC*%
G36*
X887102Y511159D02*
X887102Y511159D01*
X883596Y512612D01*
X880912Y515296D01*
X879459Y518802D01*
X879459Y522598D01*
X880912Y526104D01*
X883596Y528788D01*
X887102Y530241D01*
X890898Y530241D01*
X894404Y528788D01*
X897088Y526104D01*
X898541Y522598D01*
X898541Y518802D01*
X897088Y515296D01*
X894404Y512612D01*
X890898Y511159D01*
X887102Y511159D01*
G37*
%LPD*%
%LPC*%
G36*
X125102Y536559D02*
X125102Y536559D01*
X121596Y538012D01*
X118912Y540696D01*
X117459Y544202D01*
X117459Y547998D01*
X118912Y551504D01*
X121596Y554188D01*
X125102Y555641D01*
X128898Y555641D01*
X132404Y554188D01*
X135088Y551504D01*
X136541Y547998D01*
X136541Y544202D01*
X135088Y540696D01*
X132404Y538012D01*
X128898Y536559D01*
X125102Y536559D01*
G37*
%LPD*%
%LPC*%
G36*
X887102Y536559D02*
X887102Y536559D01*
X883596Y538012D01*
X880912Y540696D01*
X879459Y544202D01*
X879459Y547998D01*
X880912Y551504D01*
X883596Y554188D01*
X887102Y555641D01*
X890898Y555641D01*
X894404Y554188D01*
X897088Y551504D01*
X898541Y547998D01*
X898541Y544202D01*
X897088Y540696D01*
X894404Y538012D01*
X890898Y536559D01*
X887102Y536559D01*
G37*
%LPD*%
%LPC*%
G36*
X125102Y561959D02*
X125102Y561959D01*
X121596Y563412D01*
X118912Y566096D01*
X117459Y569602D01*
X117459Y573398D01*
X118912Y576904D01*
X121596Y579588D01*
X125102Y581041D01*
X128898Y581041D01*
X132404Y579588D01*
X135088Y576904D01*
X136541Y573398D01*
X136541Y569602D01*
X135088Y566096D01*
X132404Y563412D01*
X128898Y561959D01*
X125102Y561959D01*
G37*
%LPD*%
%LPC*%
G36*
X887102Y561959D02*
X887102Y561959D01*
X883596Y563412D01*
X880912Y566096D01*
X879459Y569602D01*
X879459Y573398D01*
X880912Y576904D01*
X883596Y579588D01*
X887102Y581041D01*
X890898Y581041D01*
X894404Y579588D01*
X897088Y576904D01*
X898541Y573398D01*
X898541Y569602D01*
X897088Y566096D01*
X894404Y563412D01*
X890898Y561959D01*
X887102Y561959D01*
G37*
%LPD*%
%LPC*%
G36*
X125102Y587359D02*
X125102Y587359D01*
X121596Y588812D01*
X118912Y591496D01*
X117459Y595002D01*
X117459Y598798D01*
X118912Y602304D01*
X121596Y604988D01*
X125102Y606441D01*
X128898Y606441D01*
X132404Y604988D01*
X135088Y602304D01*
X136541Y598798D01*
X136541Y595002D01*
X135088Y591496D01*
X132404Y588812D01*
X128898Y587359D01*
X125102Y587359D01*
G37*
%LPD*%
%LPC*%
G36*
X887102Y587359D02*
X887102Y587359D01*
X883596Y588812D01*
X880912Y591496D01*
X879459Y595002D01*
X879459Y598798D01*
X880912Y602304D01*
X883596Y604988D01*
X887102Y606441D01*
X890898Y606441D01*
X894404Y604988D01*
X897088Y602304D01*
X898541Y598798D01*
X898541Y595002D01*
X897088Y591496D01*
X894404Y588812D01*
X890898Y587359D01*
X887102Y587359D01*
G37*
%LPD*%
%LPC*%
G36*
X125102Y739759D02*
X125102Y739759D01*
X121596Y741212D01*
X118912Y743896D01*
X117459Y747402D01*
X117459Y751198D01*
X118912Y754704D01*
X121596Y757388D01*
X125102Y758841D01*
X128898Y758841D01*
X132404Y757388D01*
X135088Y754704D01*
X136541Y751198D01*
X136541Y747402D01*
X135088Y743896D01*
X132404Y741212D01*
X128898Y739759D01*
X125102Y739759D01*
G37*
%LPD*%
%LPC*%
G36*
X887102Y739759D02*
X887102Y739759D01*
X883596Y741212D01*
X880912Y743896D01*
X879459Y747402D01*
X879459Y751198D01*
X880912Y754704D01*
X883596Y757388D01*
X887102Y758841D01*
X890898Y758841D01*
X894404Y757388D01*
X897088Y754704D01*
X898541Y751198D01*
X898541Y747402D01*
X897088Y743896D01*
X894404Y741212D01*
X890898Y739759D01*
X887102Y739759D01*
G37*
%LPD*%
%LPC*%
G36*
X125102Y612759D02*
X125102Y612759D01*
X121596Y614212D01*
X118912Y616896D01*
X117459Y620402D01*
X117459Y624198D01*
X118912Y627704D01*
X121596Y630388D01*
X125102Y631841D01*
X128898Y631841D01*
X132404Y630388D01*
X135088Y627704D01*
X136541Y624198D01*
X136541Y620402D01*
X135088Y616896D01*
X132404Y614212D01*
X128898Y612759D01*
X125102Y612759D01*
G37*
%LPD*%
%LPC*%
G36*
X887102Y688959D02*
X887102Y688959D01*
X883596Y690412D01*
X880912Y693096D01*
X879459Y696602D01*
X879459Y700398D01*
X880912Y703904D01*
X883596Y706588D01*
X887102Y708041D01*
X890898Y708041D01*
X894404Y706588D01*
X897088Y703904D01*
X898541Y700398D01*
X898541Y696602D01*
X897088Y693096D01*
X894404Y690412D01*
X890898Y688959D01*
X887102Y688959D01*
G37*
%LPD*%
%LPC*%
G36*
X125102Y688959D02*
X125102Y688959D01*
X121596Y690412D01*
X118912Y693096D01*
X117459Y696602D01*
X117459Y700398D01*
X118912Y703904D01*
X121596Y706588D01*
X125102Y708041D01*
X128898Y708041D01*
X132404Y706588D01*
X135088Y703904D01*
X136541Y700398D01*
X136541Y696602D01*
X135088Y693096D01*
X132404Y690412D01*
X128898Y688959D01*
X125102Y688959D01*
G37*
%LPD*%
%LPC*%
G36*
X887102Y612759D02*
X887102Y612759D01*
X883596Y614212D01*
X880912Y616896D01*
X879459Y620402D01*
X879459Y624198D01*
X880912Y627704D01*
X883596Y630388D01*
X887102Y631841D01*
X890898Y631841D01*
X894404Y630388D01*
X897088Y627704D01*
X898541Y624198D01*
X898541Y620402D01*
X897088Y616896D01*
X894404Y614212D01*
X890898Y612759D01*
X887102Y612759D01*
G37*
%LPD*%
%LPC*%
G36*
X125102Y638159D02*
X125102Y638159D01*
X121596Y639612D01*
X118912Y642296D01*
X117459Y645802D01*
X117459Y649598D01*
X118912Y653104D01*
X121596Y655788D01*
X125102Y657241D01*
X128898Y657241D01*
X132404Y655788D01*
X135088Y653104D01*
X136541Y649598D01*
X136541Y645802D01*
X135088Y642296D01*
X132404Y639612D01*
X128898Y638159D01*
X125102Y638159D01*
G37*
%LPD*%
%LPC*%
G36*
X887102Y638159D02*
X887102Y638159D01*
X883596Y639612D01*
X880912Y642296D01*
X879459Y645802D01*
X879459Y649598D01*
X880912Y653104D01*
X883596Y655788D01*
X887102Y657241D01*
X890898Y657241D01*
X894404Y655788D01*
X897088Y653104D01*
X898541Y649598D01*
X898541Y645802D01*
X897088Y642296D01*
X894404Y639612D01*
X890898Y638159D01*
X887102Y638159D01*
G37*
%LPD*%
%LPC*%
G36*
X125102Y663559D02*
X125102Y663559D01*
X121596Y665012D01*
X118912Y667696D01*
X117459Y671202D01*
X117459Y674998D01*
X118912Y678504D01*
X121596Y681188D01*
X125102Y682641D01*
X128898Y682641D01*
X132404Y681188D01*
X135088Y678504D01*
X136541Y674998D01*
X136541Y671202D01*
X135088Y667696D01*
X132404Y665012D01*
X128898Y663559D01*
X125102Y663559D01*
G37*
%LPD*%
%LPC*%
G36*
X624324Y145959D02*
X624324Y145959D01*
X621023Y147326D01*
X618496Y149853D01*
X617129Y153154D01*
X617129Y156726D01*
X618496Y160027D01*
X621023Y162554D01*
X624324Y163921D01*
X627896Y163921D01*
X631197Y162554D01*
X633724Y160027D01*
X635091Y156726D01*
X635091Y153154D01*
X633724Y149853D01*
X631197Y147326D01*
X627896Y145959D01*
X624324Y145959D01*
G37*
%LPD*%
%LPC*%
G36*
X624957Y471036D02*
X624957Y471036D01*
X621736Y472370D01*
X619270Y474836D01*
X617936Y478057D01*
X617936Y481543D01*
X619270Y484764D01*
X621736Y487230D01*
X624957Y488564D01*
X628443Y488564D01*
X631664Y487230D01*
X634130Y484764D01*
X635464Y481543D01*
X635464Y478057D01*
X634130Y474836D01*
X631664Y472370D01*
X628443Y471036D01*
X624957Y471036D01*
G37*
%LPD*%
%LPC*%
G36*
X294757Y445636D02*
X294757Y445636D01*
X291536Y446970D01*
X289070Y449436D01*
X287736Y452657D01*
X287736Y456143D01*
X289070Y459364D01*
X291536Y461830D01*
X294757Y463164D01*
X298243Y463164D01*
X301464Y461830D01*
X303930Y459364D01*
X305264Y456143D01*
X305264Y452657D01*
X303930Y449436D01*
X301464Y446970D01*
X298243Y445636D01*
X294757Y445636D01*
G37*
%LPD*%
%LPC*%
G36*
X701157Y725036D02*
X701157Y725036D01*
X697936Y726370D01*
X695470Y728836D01*
X694136Y732057D01*
X694136Y735543D01*
X695470Y738764D01*
X697936Y741230D01*
X701157Y742564D01*
X704643Y742564D01*
X707864Y741230D01*
X710330Y738764D01*
X711664Y735543D01*
X711664Y732057D01*
X710330Y728836D01*
X707864Y726370D01*
X704643Y725036D01*
X701157Y725036D01*
G37*
%LPD*%
%LPC*%
G36*
X675757Y725036D02*
X675757Y725036D01*
X672536Y726370D01*
X670070Y728836D01*
X668736Y732057D01*
X668736Y735543D01*
X670070Y738764D01*
X672536Y741230D01*
X675757Y742564D01*
X679243Y742564D01*
X682464Y741230D01*
X684930Y738764D01*
X686264Y735543D01*
X686264Y732057D01*
X684930Y728836D01*
X682464Y726370D01*
X679243Y725036D01*
X675757Y725036D01*
G37*
%LPD*%
%LPC*%
G36*
X650357Y725036D02*
X650357Y725036D01*
X647136Y726370D01*
X644670Y728836D01*
X643336Y732057D01*
X643336Y735543D01*
X644670Y738764D01*
X647136Y741230D01*
X650357Y742564D01*
X653843Y742564D01*
X657064Y741230D01*
X659530Y738764D01*
X660864Y735543D01*
X660864Y732057D01*
X659530Y728836D01*
X657064Y726370D01*
X653843Y725036D01*
X650357Y725036D01*
G37*
%LPD*%
%LPC*%
G36*
X624957Y725036D02*
X624957Y725036D01*
X621736Y726370D01*
X619270Y728836D01*
X617936Y732057D01*
X617936Y735543D01*
X619270Y738764D01*
X621736Y741230D01*
X624957Y742564D01*
X628443Y742564D01*
X631664Y741230D01*
X634130Y738764D01*
X635464Y735543D01*
X635464Y732057D01*
X634130Y728836D01*
X631664Y726370D01*
X628443Y725036D01*
X624957Y725036D01*
G37*
%LPD*%
%LPC*%
G36*
X599557Y725036D02*
X599557Y725036D01*
X596336Y726370D01*
X593870Y728836D01*
X592536Y732057D01*
X592536Y735543D01*
X593870Y738764D01*
X596336Y741230D01*
X599557Y742564D01*
X603043Y742564D01*
X606264Y741230D01*
X608730Y738764D01*
X610064Y735543D01*
X610064Y732057D01*
X608730Y728836D01*
X606264Y726370D01*
X603043Y725036D01*
X599557Y725036D01*
G37*
%LPD*%
%LPC*%
G36*
X574157Y725036D02*
X574157Y725036D01*
X570936Y726370D01*
X568470Y728836D01*
X567136Y732057D01*
X567136Y735543D01*
X568470Y738764D01*
X570936Y741230D01*
X574157Y742564D01*
X577643Y742564D01*
X580864Y741230D01*
X583330Y738764D01*
X584664Y735543D01*
X584664Y732057D01*
X583330Y728836D01*
X580864Y726370D01*
X577643Y725036D01*
X574157Y725036D01*
G37*
%LPD*%
%LPC*%
G36*
X548757Y725036D02*
X548757Y725036D01*
X545536Y726370D01*
X543070Y728836D01*
X541736Y732057D01*
X541736Y735543D01*
X543070Y738764D01*
X545536Y741230D01*
X548757Y742564D01*
X552243Y742564D01*
X555464Y741230D01*
X557930Y738764D01*
X559264Y735543D01*
X559264Y732057D01*
X557930Y728836D01*
X555464Y726370D01*
X552243Y725036D01*
X548757Y725036D01*
G37*
%LPD*%
%LPC*%
G36*
X269357Y699636D02*
X269357Y699636D01*
X266136Y700970D01*
X263670Y703436D01*
X262336Y706657D01*
X262336Y710143D01*
X263670Y713364D01*
X266136Y715830D01*
X269357Y717164D01*
X272843Y717164D01*
X276064Y715830D01*
X278530Y713364D01*
X279864Y710143D01*
X279864Y706657D01*
X278530Y703436D01*
X276064Y700970D01*
X272843Y699636D01*
X269357Y699636D01*
G37*
%LPD*%
%LPC*%
G36*
X294757Y699636D02*
X294757Y699636D01*
X291536Y700970D01*
X289070Y703436D01*
X287736Y706657D01*
X287736Y710143D01*
X289070Y713364D01*
X291536Y715830D01*
X294757Y717164D01*
X298243Y717164D01*
X301464Y715830D01*
X303930Y713364D01*
X305264Y710143D01*
X305264Y706657D01*
X303930Y703436D01*
X301464Y700970D01*
X298243Y699636D01*
X294757Y699636D01*
G37*
%LPD*%
%LPC*%
G36*
X320157Y699636D02*
X320157Y699636D01*
X316936Y700970D01*
X314470Y703436D01*
X313136Y706657D01*
X313136Y710143D01*
X314470Y713364D01*
X316936Y715830D01*
X320157Y717164D01*
X323643Y717164D01*
X326864Y715830D01*
X329330Y713364D01*
X330664Y710143D01*
X330664Y706657D01*
X329330Y703436D01*
X326864Y700970D01*
X323643Y699636D01*
X320157Y699636D01*
G37*
%LPD*%
%LPC*%
G36*
X523357Y725036D02*
X523357Y725036D01*
X520136Y726370D01*
X517670Y728836D01*
X516336Y732057D01*
X516336Y735543D01*
X517670Y738764D01*
X520136Y741230D01*
X523357Y742564D01*
X526843Y742564D01*
X530064Y741230D01*
X532530Y738764D01*
X533864Y735543D01*
X533864Y732057D01*
X532530Y728836D01*
X530064Y726370D01*
X526843Y725036D01*
X523357Y725036D01*
G37*
%LPD*%
%LPC*%
G36*
X497957Y725036D02*
X497957Y725036D01*
X494736Y726370D01*
X492270Y728836D01*
X490936Y732057D01*
X490936Y735543D01*
X492270Y738764D01*
X494736Y741230D01*
X497957Y742564D01*
X501443Y742564D01*
X504664Y741230D01*
X507130Y738764D01*
X508464Y735543D01*
X508464Y732057D01*
X507130Y728836D01*
X504664Y726370D01*
X501443Y725036D01*
X497957Y725036D01*
G37*
%LPD*%
%LPC*%
G36*
X472557Y725036D02*
X472557Y725036D01*
X469336Y726370D01*
X466870Y728836D01*
X465536Y732057D01*
X465536Y735543D01*
X466870Y738764D01*
X469336Y741230D01*
X472557Y742564D01*
X476043Y742564D01*
X479264Y741230D01*
X481730Y738764D01*
X483064Y735543D01*
X483064Y732057D01*
X481730Y728836D01*
X479264Y726370D01*
X476043Y725036D01*
X472557Y725036D01*
G37*
%LPD*%
%LPC*%
G36*
X447157Y725036D02*
X447157Y725036D01*
X443936Y726370D01*
X441470Y728836D01*
X440136Y732057D01*
X440136Y735543D01*
X441470Y738764D01*
X443936Y741230D01*
X447157Y742564D01*
X450643Y742564D01*
X453864Y741230D01*
X456330Y738764D01*
X457664Y735543D01*
X457664Y732057D01*
X456330Y728836D01*
X453864Y726370D01*
X450643Y725036D01*
X447157Y725036D01*
G37*
%LPD*%
%LPC*%
G36*
X421757Y725036D02*
X421757Y725036D01*
X418536Y726370D01*
X416070Y728836D01*
X414736Y732057D01*
X414736Y735543D01*
X416070Y738764D01*
X418536Y741230D01*
X421757Y742564D01*
X425243Y742564D01*
X428464Y741230D01*
X430930Y738764D01*
X432264Y735543D01*
X432264Y732057D01*
X430930Y728836D01*
X428464Y726370D01*
X425243Y725036D01*
X421757Y725036D01*
G37*
%LPD*%
%LPC*%
G36*
X396357Y725036D02*
X396357Y725036D01*
X393136Y726370D01*
X390670Y728836D01*
X389336Y732057D01*
X389336Y735543D01*
X390670Y738764D01*
X393136Y741230D01*
X396357Y742564D01*
X399843Y742564D01*
X403064Y741230D01*
X405530Y738764D01*
X406864Y735543D01*
X406864Y732057D01*
X405530Y728836D01*
X403064Y726370D01*
X399843Y725036D01*
X396357Y725036D01*
G37*
%LPD*%
%LPC*%
G36*
X370957Y725036D02*
X370957Y725036D01*
X367736Y726370D01*
X365270Y728836D01*
X363936Y732057D01*
X363936Y735543D01*
X365270Y738764D01*
X367736Y741230D01*
X370957Y742564D01*
X374443Y742564D01*
X377664Y741230D01*
X380130Y738764D01*
X381464Y735543D01*
X381464Y732057D01*
X380130Y728836D01*
X377664Y726370D01*
X374443Y725036D01*
X370957Y725036D01*
G37*
%LPD*%
%LPC*%
G36*
X345557Y725036D02*
X345557Y725036D01*
X342336Y726370D01*
X339870Y728836D01*
X338536Y732057D01*
X338536Y735543D01*
X339870Y738764D01*
X342336Y741230D01*
X345557Y742564D01*
X349043Y742564D01*
X352264Y741230D01*
X354730Y738764D01*
X356064Y735543D01*
X356064Y732057D01*
X354730Y728836D01*
X352264Y726370D01*
X349043Y725036D01*
X345557Y725036D01*
G37*
%LPD*%
%LPC*%
G36*
X320157Y725036D02*
X320157Y725036D01*
X316936Y726370D01*
X314470Y728836D01*
X313136Y732057D01*
X313136Y735543D01*
X314470Y738764D01*
X316936Y741230D01*
X320157Y742564D01*
X323643Y742564D01*
X326864Y741230D01*
X329330Y738764D01*
X330664Y735543D01*
X330664Y732057D01*
X329330Y728836D01*
X326864Y726370D01*
X323643Y725036D01*
X320157Y725036D01*
G37*
%LPD*%
%LPC*%
G36*
X294757Y725036D02*
X294757Y725036D01*
X291536Y726370D01*
X289070Y728836D01*
X287736Y732057D01*
X287736Y735543D01*
X289070Y738764D01*
X291536Y741230D01*
X294757Y742564D01*
X298243Y742564D01*
X301464Y741230D01*
X303930Y738764D01*
X305264Y735543D01*
X305264Y732057D01*
X303930Y728836D01*
X301464Y726370D01*
X298243Y725036D01*
X294757Y725036D01*
G37*
%LPD*%
%LPC*%
G36*
X345557Y699636D02*
X345557Y699636D01*
X342336Y700970D01*
X339870Y703436D01*
X338536Y706657D01*
X338536Y710143D01*
X339870Y713364D01*
X342336Y715830D01*
X345557Y717164D01*
X349043Y717164D01*
X352264Y715830D01*
X354730Y713364D01*
X356064Y710143D01*
X356064Y706657D01*
X354730Y703436D01*
X352264Y700970D01*
X349043Y699636D01*
X345557Y699636D01*
G37*
%LPD*%
%LPC*%
G36*
X370957Y699636D02*
X370957Y699636D01*
X367736Y700970D01*
X365270Y703436D01*
X363936Y706657D01*
X363936Y710143D01*
X365270Y713364D01*
X367736Y715830D01*
X370957Y717164D01*
X374443Y717164D01*
X377664Y715830D01*
X380130Y713364D01*
X381464Y710143D01*
X381464Y706657D01*
X380130Y703436D01*
X377664Y700970D01*
X374443Y699636D01*
X370957Y699636D01*
G37*
%LPD*%
%LPC*%
G36*
X396357Y699636D02*
X396357Y699636D01*
X393136Y700970D01*
X390670Y703436D01*
X389336Y706657D01*
X389336Y710143D01*
X390670Y713364D01*
X393136Y715830D01*
X396357Y717164D01*
X399843Y717164D01*
X403064Y715830D01*
X405530Y713364D01*
X406864Y710143D01*
X406864Y706657D01*
X405530Y703436D01*
X403064Y700970D01*
X399843Y699636D01*
X396357Y699636D01*
G37*
%LPD*%
%LPC*%
G36*
X421757Y699636D02*
X421757Y699636D01*
X418536Y700970D01*
X416070Y703436D01*
X414736Y706657D01*
X414736Y710143D01*
X416070Y713364D01*
X418536Y715830D01*
X421757Y717164D01*
X425243Y717164D01*
X428464Y715830D01*
X430930Y713364D01*
X432264Y710143D01*
X432264Y706657D01*
X430930Y703436D01*
X428464Y700970D01*
X425243Y699636D01*
X421757Y699636D01*
G37*
%LPD*%
%LPC*%
G36*
X472557Y699636D02*
X472557Y699636D01*
X469336Y700970D01*
X466870Y703436D01*
X465536Y706657D01*
X465536Y710143D01*
X466870Y713364D01*
X469336Y715830D01*
X472557Y717164D01*
X476043Y717164D01*
X479264Y715830D01*
X481730Y713364D01*
X483064Y710143D01*
X483064Y706657D01*
X481730Y703436D01*
X479264Y700970D01*
X476043Y699636D01*
X472557Y699636D01*
G37*
%LPD*%
%LPC*%
G36*
X497957Y699636D02*
X497957Y699636D01*
X494736Y700970D01*
X492270Y703436D01*
X490936Y706657D01*
X490936Y710143D01*
X492270Y713364D01*
X494736Y715830D01*
X497957Y717164D01*
X501443Y717164D01*
X504664Y715830D01*
X507130Y713364D01*
X508464Y710143D01*
X508464Y706657D01*
X507130Y703436D01*
X504664Y700970D01*
X501443Y699636D01*
X497957Y699636D01*
G37*
%LPD*%
%LPC*%
G36*
X599557Y471036D02*
X599557Y471036D01*
X596336Y472370D01*
X593870Y474836D01*
X592536Y478057D01*
X592536Y481543D01*
X593870Y484764D01*
X596336Y487230D01*
X599557Y488564D01*
X603043Y488564D01*
X606264Y487230D01*
X608730Y484764D01*
X610064Y481543D01*
X610064Y478057D01*
X608730Y474836D01*
X606264Y472370D01*
X603043Y471036D01*
X599557Y471036D01*
G37*
%LPD*%
%LPC*%
G36*
X574157Y471036D02*
X574157Y471036D01*
X570936Y472370D01*
X568470Y474836D01*
X567136Y478057D01*
X567136Y481543D01*
X568470Y484764D01*
X570936Y487230D01*
X574157Y488564D01*
X577643Y488564D01*
X580864Y487230D01*
X583330Y484764D01*
X584664Y481543D01*
X584664Y478057D01*
X583330Y474836D01*
X580864Y472370D01*
X577643Y471036D01*
X574157Y471036D01*
G37*
%LPD*%
%LPC*%
G36*
X701157Y471036D02*
X701157Y471036D01*
X697936Y472370D01*
X695470Y474836D01*
X694136Y478057D01*
X694136Y481543D01*
X695470Y484764D01*
X697936Y487230D01*
X701157Y488564D01*
X704643Y488564D01*
X707864Y487230D01*
X710330Y484764D01*
X711664Y481543D01*
X711664Y478057D01*
X710330Y474836D01*
X707864Y472370D01*
X704643Y471036D01*
X701157Y471036D01*
G37*
%LPD*%
%LPC*%
G36*
X675757Y471036D02*
X675757Y471036D01*
X672536Y472370D01*
X670070Y474836D01*
X668736Y478057D01*
X668736Y481543D01*
X670070Y484764D01*
X672536Y487230D01*
X675757Y488564D01*
X679243Y488564D01*
X682464Y487230D01*
X684930Y484764D01*
X686264Y481543D01*
X686264Y478057D01*
X684930Y474836D01*
X682464Y472370D01*
X679243Y471036D01*
X675757Y471036D01*
G37*
%LPD*%
%LPC*%
G36*
X599557Y699636D02*
X599557Y699636D01*
X596336Y700970D01*
X593870Y703436D01*
X592536Y706657D01*
X592536Y710143D01*
X593870Y713364D01*
X596336Y715830D01*
X599557Y717164D01*
X603043Y717164D01*
X606264Y715830D01*
X608730Y713364D01*
X610064Y710143D01*
X610064Y706657D01*
X608730Y703436D01*
X606264Y700970D01*
X603043Y699636D01*
X599557Y699636D01*
G37*
%LPD*%
%LPC*%
G36*
X269357Y725036D02*
X269357Y725036D01*
X266136Y726370D01*
X263670Y728836D01*
X262336Y732057D01*
X262336Y735543D01*
X263670Y738764D01*
X266136Y741230D01*
X269357Y742564D01*
X272843Y742564D01*
X276064Y741230D01*
X278530Y738764D01*
X279864Y735543D01*
X279864Y732057D01*
X278530Y728836D01*
X276064Y726370D01*
X272843Y725036D01*
X269357Y725036D01*
G37*
%LPD*%
%LPC*%
G36*
X548757Y471036D02*
X548757Y471036D01*
X545536Y472370D01*
X543070Y474836D01*
X541736Y478057D01*
X541736Y481543D01*
X543070Y484764D01*
X545536Y487230D01*
X548757Y488564D01*
X552243Y488564D01*
X555464Y487230D01*
X557930Y484764D01*
X559264Y481543D01*
X559264Y478057D01*
X557930Y474836D01*
X555464Y472370D01*
X552243Y471036D01*
X548757Y471036D01*
G37*
%LPD*%
%LPC*%
G36*
X497957Y471036D02*
X497957Y471036D01*
X494736Y472370D01*
X492270Y474836D01*
X490936Y478057D01*
X490936Y481543D01*
X492270Y484764D01*
X494736Y487230D01*
X497957Y488564D01*
X501443Y488564D01*
X504664Y487230D01*
X507130Y484764D01*
X508464Y481543D01*
X508464Y478057D01*
X507130Y474836D01*
X504664Y472370D01*
X501443Y471036D01*
X497957Y471036D01*
G37*
%LPD*%
%LPC*%
G36*
X472557Y471036D02*
X472557Y471036D01*
X469336Y472370D01*
X466870Y474836D01*
X465536Y478057D01*
X465536Y481543D01*
X466870Y484764D01*
X469336Y487230D01*
X472557Y488564D01*
X476043Y488564D01*
X479264Y487230D01*
X481730Y484764D01*
X483064Y481543D01*
X483064Y478057D01*
X481730Y474836D01*
X479264Y472370D01*
X476043Y471036D01*
X472557Y471036D01*
G37*
%LPD*%
%LPC*%
G36*
X447157Y471036D02*
X447157Y471036D01*
X443936Y472370D01*
X441470Y474836D01*
X440136Y478057D01*
X440136Y481543D01*
X441470Y484764D01*
X443936Y487230D01*
X447157Y488564D01*
X450643Y488564D01*
X453864Y487230D01*
X456330Y484764D01*
X457664Y481543D01*
X457664Y478057D01*
X456330Y474836D01*
X453864Y472370D01*
X450643Y471036D01*
X447157Y471036D01*
G37*
%LPD*%
%LPC*%
G36*
X421757Y471036D02*
X421757Y471036D01*
X418536Y472370D01*
X416070Y474836D01*
X414736Y478057D01*
X414736Y481543D01*
X416070Y484764D01*
X418536Y487230D01*
X421757Y488564D01*
X425243Y488564D01*
X428464Y487230D01*
X430930Y484764D01*
X432264Y481543D01*
X432264Y478057D01*
X430930Y474836D01*
X428464Y472370D01*
X425243Y471036D01*
X421757Y471036D01*
G37*
%LPD*%
%LPC*%
G36*
X396357Y471036D02*
X396357Y471036D01*
X393136Y472370D01*
X390670Y474836D01*
X389336Y478057D01*
X389336Y481543D01*
X390670Y484764D01*
X393136Y487230D01*
X396357Y488564D01*
X399843Y488564D01*
X403064Y487230D01*
X405530Y484764D01*
X406864Y481543D01*
X406864Y478057D01*
X405530Y474836D01*
X403064Y472370D01*
X399843Y471036D01*
X396357Y471036D01*
G37*
%LPD*%
%LPC*%
G36*
X370957Y471036D02*
X370957Y471036D01*
X367736Y472370D01*
X365270Y474836D01*
X363936Y478057D01*
X363936Y481543D01*
X365270Y484764D01*
X367736Y487230D01*
X370957Y488564D01*
X374443Y488564D01*
X377664Y487230D01*
X380130Y484764D01*
X381464Y481543D01*
X381464Y478057D01*
X380130Y474836D01*
X377664Y472370D01*
X374443Y471036D01*
X370957Y471036D01*
G37*
%LPD*%
%LPC*%
G36*
X345557Y471036D02*
X345557Y471036D01*
X342336Y472370D01*
X339870Y474836D01*
X338536Y478057D01*
X338536Y481543D01*
X339870Y484764D01*
X342336Y487230D01*
X345557Y488564D01*
X349043Y488564D01*
X352264Y487230D01*
X354730Y484764D01*
X356064Y481543D01*
X356064Y478057D01*
X354730Y474836D01*
X352264Y472370D01*
X349043Y471036D01*
X345557Y471036D01*
G37*
%LPD*%
%LPC*%
G36*
X320157Y471036D02*
X320157Y471036D01*
X316936Y472370D01*
X314470Y474836D01*
X313136Y478057D01*
X313136Y481543D01*
X314470Y484764D01*
X316936Y487230D01*
X320157Y488564D01*
X323643Y488564D01*
X326864Y487230D01*
X329330Y484764D01*
X330664Y481543D01*
X330664Y478057D01*
X329330Y474836D01*
X326864Y472370D01*
X323643Y471036D01*
X320157Y471036D01*
G37*
%LPD*%
%LPC*%
G36*
X294757Y471036D02*
X294757Y471036D01*
X291536Y472370D01*
X289070Y474836D01*
X287736Y478057D01*
X287736Y481543D01*
X289070Y484764D01*
X291536Y487230D01*
X294757Y488564D01*
X298243Y488564D01*
X301464Y487230D01*
X303930Y484764D01*
X305264Y481543D01*
X305264Y478057D01*
X303930Y474836D01*
X301464Y472370D01*
X298243Y471036D01*
X294757Y471036D01*
G37*
%LPD*%
%LPC*%
G36*
X269357Y471036D02*
X269357Y471036D01*
X266136Y472370D01*
X263670Y474836D01*
X262336Y478057D01*
X262336Y481543D01*
X263670Y484764D01*
X266136Y487230D01*
X269357Y488564D01*
X272843Y488564D01*
X276064Y487230D01*
X278530Y484764D01*
X279864Y481543D01*
X279864Y478057D01*
X278530Y474836D01*
X276064Y472370D01*
X272843Y471036D01*
X269357Y471036D01*
G37*
%LPD*%
%LPC*%
G36*
X574157Y699636D02*
X574157Y699636D01*
X570936Y700970D01*
X568470Y703436D01*
X567136Y706657D01*
X567136Y710143D01*
X568470Y713364D01*
X570936Y715830D01*
X574157Y717164D01*
X577643Y717164D01*
X580864Y715830D01*
X583330Y713364D01*
X584664Y710143D01*
X584664Y706657D01*
X583330Y703436D01*
X580864Y700970D01*
X577643Y699636D01*
X574157Y699636D01*
G37*
%LPD*%
%LPC*%
G36*
X548757Y699636D02*
X548757Y699636D01*
X545536Y700970D01*
X543070Y703436D01*
X541736Y706657D01*
X541736Y710143D01*
X543070Y713364D01*
X545536Y715830D01*
X548757Y717164D01*
X552243Y717164D01*
X555464Y715830D01*
X557930Y713364D01*
X559264Y710143D01*
X559264Y706657D01*
X557930Y703436D01*
X555464Y700970D01*
X552243Y699636D01*
X548757Y699636D01*
G37*
%LPD*%
%LPC*%
G36*
X624957Y699636D02*
X624957Y699636D01*
X621736Y700970D01*
X619270Y703436D01*
X617936Y706657D01*
X617936Y710143D01*
X619270Y713364D01*
X621736Y715830D01*
X624957Y717164D01*
X628443Y717164D01*
X631664Y715830D01*
X634130Y713364D01*
X635464Y710143D01*
X635464Y706657D01*
X634130Y703436D01*
X631664Y700970D01*
X628443Y699636D01*
X624957Y699636D01*
G37*
%LPD*%
%LPC*%
G36*
X650357Y699636D02*
X650357Y699636D01*
X647136Y700970D01*
X644670Y703436D01*
X643336Y706657D01*
X643336Y710143D01*
X644670Y713364D01*
X647136Y715830D01*
X650357Y717164D01*
X653843Y717164D01*
X657064Y715830D01*
X659530Y713364D01*
X660864Y710143D01*
X660864Y706657D01*
X659530Y703436D01*
X657064Y700970D01*
X653843Y699636D01*
X650357Y699636D01*
G37*
%LPD*%
%LPC*%
G36*
X701157Y699636D02*
X701157Y699636D01*
X697936Y700970D01*
X695470Y703436D01*
X694136Y706657D01*
X694136Y710143D01*
X695470Y713364D01*
X697936Y715830D01*
X701157Y717164D01*
X704643Y717164D01*
X707864Y715830D01*
X710330Y713364D01*
X711664Y710143D01*
X711664Y706657D01*
X710330Y703436D01*
X707864Y700970D01*
X704643Y699636D01*
X701157Y699636D01*
G37*
%LPD*%
%LPC*%
G36*
X675757Y699636D02*
X675757Y699636D01*
X672536Y700970D01*
X670070Y703436D01*
X668736Y706657D01*
X668736Y710143D01*
X670070Y713364D01*
X672536Y715830D01*
X675757Y717164D01*
X679243Y717164D01*
X682464Y715830D01*
X684930Y713364D01*
X686264Y710143D01*
X686264Y706657D01*
X684930Y703436D01*
X682464Y700970D01*
X679243Y699636D01*
X675757Y699636D01*
G37*
%LPD*%
%LPC*%
G36*
X675757Y445636D02*
X675757Y445636D01*
X672536Y446970D01*
X670070Y449436D01*
X668736Y452657D01*
X668736Y456143D01*
X670070Y459364D01*
X672536Y461830D01*
X675757Y463164D01*
X679243Y463164D01*
X682464Y461830D01*
X684930Y459364D01*
X686264Y456143D01*
X686264Y452657D01*
X684930Y449436D01*
X682464Y446970D01*
X679243Y445636D01*
X675757Y445636D01*
G37*
%LPD*%
%LPC*%
G36*
X650357Y445636D02*
X650357Y445636D01*
X647136Y446970D01*
X644670Y449436D01*
X643336Y452657D01*
X643336Y456143D01*
X644670Y459364D01*
X647136Y461830D01*
X650357Y463164D01*
X653843Y463164D01*
X657064Y461830D01*
X659530Y459364D01*
X660864Y456143D01*
X660864Y452657D01*
X659530Y449436D01*
X657064Y446970D01*
X653843Y445636D01*
X650357Y445636D01*
G37*
%LPD*%
%LPC*%
G36*
X701157Y445636D02*
X701157Y445636D01*
X697936Y446970D01*
X695470Y449436D01*
X694136Y452657D01*
X694136Y456143D01*
X695470Y459364D01*
X697936Y461830D01*
X701157Y463164D01*
X704643Y463164D01*
X707864Y461830D01*
X710330Y459364D01*
X711664Y456143D01*
X711664Y452657D01*
X710330Y449436D01*
X707864Y446970D01*
X704643Y445636D01*
X701157Y445636D01*
G37*
%LPD*%
%LPC*%
G36*
X624957Y445636D02*
X624957Y445636D01*
X621736Y446970D01*
X619270Y449436D01*
X617936Y452657D01*
X617936Y456143D01*
X619270Y459364D01*
X621736Y461830D01*
X624957Y463164D01*
X628443Y463164D01*
X631664Y461830D01*
X634130Y459364D01*
X635464Y456143D01*
X635464Y452657D01*
X634130Y449436D01*
X631664Y446970D01*
X628443Y445636D01*
X624957Y445636D01*
G37*
%LPD*%
%LPC*%
G36*
X599557Y445636D02*
X599557Y445636D01*
X596336Y446970D01*
X593870Y449436D01*
X592536Y452657D01*
X592536Y456143D01*
X593870Y459364D01*
X596336Y461830D01*
X599557Y463164D01*
X603043Y463164D01*
X606264Y461830D01*
X608730Y459364D01*
X610064Y456143D01*
X610064Y452657D01*
X608730Y449436D01*
X606264Y446970D01*
X603043Y445636D01*
X599557Y445636D01*
G37*
%LPD*%
%LPC*%
G36*
X574157Y445636D02*
X574157Y445636D01*
X570936Y446970D01*
X568470Y449436D01*
X567136Y452657D01*
X567136Y456143D01*
X568470Y459364D01*
X570936Y461830D01*
X574157Y463164D01*
X577643Y463164D01*
X580864Y461830D01*
X583330Y459364D01*
X584664Y456143D01*
X584664Y452657D01*
X583330Y449436D01*
X580864Y446970D01*
X577643Y445636D01*
X574157Y445636D01*
G37*
%LPD*%
%LPC*%
G36*
X497957Y445636D02*
X497957Y445636D01*
X494736Y446970D01*
X492270Y449436D01*
X490936Y452657D01*
X490936Y456143D01*
X492270Y459364D01*
X494736Y461830D01*
X497957Y463164D01*
X501443Y463164D01*
X504664Y461830D01*
X507130Y459364D01*
X508464Y456143D01*
X508464Y452657D01*
X507130Y449436D01*
X504664Y446970D01*
X501443Y445636D01*
X497957Y445636D01*
G37*
%LPD*%
%LPC*%
G36*
X472557Y445636D02*
X472557Y445636D01*
X469336Y446970D01*
X466870Y449436D01*
X465536Y452657D01*
X465536Y456143D01*
X466870Y459364D01*
X469336Y461830D01*
X472557Y463164D01*
X476043Y463164D01*
X479264Y461830D01*
X481730Y459364D01*
X483064Y456143D01*
X483064Y452657D01*
X481730Y449436D01*
X479264Y446970D01*
X476043Y445636D01*
X472557Y445636D01*
G37*
%LPD*%
%LPC*%
G36*
X447157Y445636D02*
X447157Y445636D01*
X443936Y446970D01*
X441470Y449436D01*
X440136Y452657D01*
X440136Y456143D01*
X441470Y459364D01*
X443936Y461830D01*
X447157Y463164D01*
X450643Y463164D01*
X453864Y461830D01*
X456330Y459364D01*
X457664Y456143D01*
X457664Y452657D01*
X456330Y449436D01*
X453864Y446970D01*
X450643Y445636D01*
X447157Y445636D01*
G37*
%LPD*%
%LPC*%
G36*
X421757Y445636D02*
X421757Y445636D01*
X418536Y446970D01*
X416070Y449436D01*
X414736Y452657D01*
X414736Y456143D01*
X416070Y459364D01*
X418536Y461830D01*
X421757Y463164D01*
X425243Y463164D01*
X428464Y461830D01*
X430930Y459364D01*
X432264Y456143D01*
X432264Y452657D01*
X430930Y449436D01*
X428464Y446970D01*
X425243Y445636D01*
X421757Y445636D01*
G37*
%LPD*%
%LPC*%
G36*
X396357Y445636D02*
X396357Y445636D01*
X393136Y446970D01*
X390670Y449436D01*
X389336Y452657D01*
X389336Y456143D01*
X390670Y459364D01*
X393136Y461830D01*
X396357Y463164D01*
X399843Y463164D01*
X403064Y461830D01*
X405530Y459364D01*
X406864Y456143D01*
X406864Y452657D01*
X405530Y449436D01*
X403064Y446970D01*
X399843Y445636D01*
X396357Y445636D01*
G37*
%LPD*%
%LPC*%
G36*
X370957Y445636D02*
X370957Y445636D01*
X367736Y446970D01*
X365270Y449436D01*
X363936Y452657D01*
X363936Y456143D01*
X365270Y459364D01*
X367736Y461830D01*
X370957Y463164D01*
X374443Y463164D01*
X377664Y461830D01*
X380130Y459364D01*
X381464Y456143D01*
X381464Y452657D01*
X380130Y449436D01*
X377664Y446970D01*
X374443Y445636D01*
X370957Y445636D01*
G37*
%LPD*%
%LPC*%
G36*
X345557Y445636D02*
X345557Y445636D01*
X342336Y446970D01*
X339870Y449436D01*
X338536Y452657D01*
X338536Y456143D01*
X339870Y459364D01*
X342336Y461830D01*
X345557Y463164D01*
X349043Y463164D01*
X352264Y461830D01*
X354730Y459364D01*
X356064Y456143D01*
X356064Y452657D01*
X354730Y449436D01*
X352264Y446970D01*
X349043Y445636D01*
X345557Y445636D01*
G37*
%LPD*%
%LPC*%
G36*
X320157Y445636D02*
X320157Y445636D01*
X316936Y446970D01*
X314470Y449436D01*
X313136Y452657D01*
X313136Y456143D01*
X314470Y459364D01*
X316936Y461830D01*
X320157Y463164D01*
X323643Y463164D01*
X326864Y461830D01*
X329330Y459364D01*
X330664Y456143D01*
X330664Y452657D01*
X329330Y449436D01*
X326864Y446970D01*
X323643Y445636D01*
X320157Y445636D01*
G37*
%LPD*%
%LPC*%
G36*
X650357Y471036D02*
X650357Y471036D01*
X647136Y472370D01*
X644670Y474836D01*
X643336Y478057D01*
X643336Y481543D01*
X644670Y484764D01*
X647136Y487230D01*
X650357Y488564D01*
X653843Y488564D01*
X657064Y487230D01*
X659530Y484764D01*
X660864Y481543D01*
X660864Y478057D01*
X659530Y474836D01*
X657064Y472370D01*
X653843Y471036D01*
X650357Y471036D01*
G37*
%LPD*%
%LPC*%
G36*
X269357Y445636D02*
X269357Y445636D01*
X266136Y446970D01*
X263670Y449436D01*
X262336Y452657D01*
X262336Y456143D01*
X263670Y459364D01*
X266136Y461830D01*
X269357Y463164D01*
X272843Y463164D01*
X276064Y461830D01*
X278530Y459364D01*
X279864Y456143D01*
X279864Y452657D01*
X278530Y449436D01*
X276064Y446970D01*
X272843Y445636D01*
X269357Y445636D01*
G37*
%LPD*%
%LPC*%
G36*
X642778Y303021D02*
X642778Y303021D01*
X640724Y303872D01*
X639152Y305444D01*
X638301Y307498D01*
X638301Y309722D01*
X639152Y311776D01*
X640724Y313348D01*
X642778Y314199D01*
X645002Y314199D01*
X647056Y313348D01*
X648628Y311776D01*
X649479Y309722D01*
X649479Y307498D01*
X648628Y305444D01*
X647056Y303872D01*
X645002Y303021D01*
X642778Y303021D01*
G37*
%LPD*%
%LPC*%
G36*
X638968Y196341D02*
X638968Y196341D01*
X636914Y197192D01*
X635342Y198764D01*
X634491Y200818D01*
X634491Y203042D01*
X635342Y205096D01*
X636914Y206668D01*
X638968Y207519D01*
X641192Y207519D01*
X643246Y206668D01*
X644818Y205096D01*
X645669Y203042D01*
X645669Y200818D01*
X644818Y198764D01*
X643246Y197192D01*
X641192Y196341D01*
X638968Y196341D01*
G37*
%LPD*%
%LPC*%
G36*
X1192688Y629411D02*
X1192688Y629411D01*
X1190634Y630262D01*
X1189062Y631834D01*
X1188211Y633888D01*
X1188211Y636112D01*
X1189062Y638166D01*
X1190634Y639738D01*
X1192688Y640589D01*
X1194912Y640589D01*
X1196966Y639738D01*
X1198538Y638166D01*
X1199389Y636112D01*
X1199389Y633888D01*
X1198538Y631834D01*
X1196966Y630262D01*
X1194912Y629411D01*
X1192688Y629411D01*
G37*
%LPD*%
%LPC*%
G36*
X688498Y196341D02*
X688498Y196341D01*
X686444Y197192D01*
X684872Y198764D01*
X684021Y200818D01*
X684021Y203042D01*
X684872Y205096D01*
X686444Y206668D01*
X688498Y207519D01*
X690722Y207519D01*
X692776Y206668D01*
X694348Y205096D01*
X695199Y203042D01*
X695199Y200818D01*
X694348Y198764D01*
X692776Y197192D01*
X690722Y196341D01*
X688498Y196341D01*
G37*
%LPD*%
%LPC*%
G36*
X603408Y202691D02*
X603408Y202691D01*
X601354Y203542D01*
X599782Y205114D01*
X598931Y207168D01*
X598931Y209392D01*
X599782Y211446D01*
X601354Y213018D01*
X603408Y213869D01*
X605632Y213869D01*
X607686Y213018D01*
X609258Y211446D01*
X610109Y209392D01*
X610109Y207168D01*
X609258Y205114D01*
X607686Y203542D01*
X605632Y202691D01*
X603408Y202691D01*
G37*
%LPD*%
%LPC*%
G36*
X580548Y207771D02*
X580548Y207771D01*
X578494Y208622D01*
X576922Y210194D01*
X576071Y212248D01*
X576071Y214472D01*
X576922Y216526D01*
X578494Y218098D01*
X580548Y218949D01*
X582772Y218949D01*
X584826Y218098D01*
X586398Y216526D01*
X587249Y214472D01*
X587249Y212248D01*
X586398Y210194D01*
X584826Y208622D01*
X582772Y207771D01*
X580548Y207771D01*
G37*
%LPD*%
%LPC*%
G36*
X688498Y322071D02*
X688498Y322071D01*
X686444Y322922D01*
X684872Y324494D01*
X684021Y326548D01*
X684021Y328772D01*
X684872Y330826D01*
X686444Y332398D01*
X688498Y333249D01*
X690722Y333249D01*
X692776Y332398D01*
X694348Y330826D01*
X695199Y328772D01*
X695199Y326548D01*
X694348Y324494D01*
X692776Y322922D01*
X690722Y322071D01*
X688498Y322071D01*
G37*
%LPD*%
%LPC*%
G36*
X1192688Y337311D02*
X1192688Y337311D01*
X1190634Y338162D01*
X1189062Y339734D01*
X1188211Y341788D01*
X1188211Y344012D01*
X1189062Y346066D01*
X1190634Y347638D01*
X1192688Y348489D01*
X1194912Y348489D01*
X1196966Y347638D01*
X1198538Y346066D01*
X1199389Y344012D01*
X1199389Y341788D01*
X1198538Y339734D01*
X1196966Y338162D01*
X1194912Y337311D01*
X1192688Y337311D01*
G37*
%LPD*%
%LPC*%
G36*
X638968Y215391D02*
X638968Y215391D01*
X636914Y216242D01*
X635342Y217814D01*
X634491Y219868D01*
X634491Y222092D01*
X635342Y224146D01*
X636914Y225718D01*
X638968Y226569D01*
X641192Y226569D01*
X643246Y225718D01*
X644818Y224146D01*
X645669Y222092D01*
X645669Y219868D01*
X644818Y217814D01*
X643246Y216242D01*
X641192Y215391D01*
X638968Y215391D01*
G37*
%LPD*%
%LPC*%
G36*
X688498Y215391D02*
X688498Y215391D01*
X686444Y216242D01*
X684872Y217814D01*
X684021Y219868D01*
X684021Y222092D01*
X684872Y224146D01*
X686444Y225718D01*
X688498Y226569D01*
X690722Y226569D01*
X692776Y225718D01*
X694348Y224146D01*
X695199Y222092D01*
X695199Y219868D01*
X694348Y217814D01*
X692776Y216242D01*
X690722Y215391D01*
X688498Y215391D01*
G37*
%LPD*%
%LPC*%
G36*
X638968Y234441D02*
X638968Y234441D01*
X636914Y235292D01*
X635342Y236864D01*
X634491Y238918D01*
X634491Y241142D01*
X635342Y243196D01*
X636914Y244768D01*
X638968Y245619D01*
X641192Y245619D01*
X643246Y244768D01*
X644818Y243196D01*
X645669Y241142D01*
X645669Y238918D01*
X644818Y236864D01*
X643246Y235292D01*
X641192Y234441D01*
X638968Y234441D01*
G37*
%LPD*%
%LPC*%
G36*
X688498Y234441D02*
X688498Y234441D01*
X686444Y235292D01*
X684872Y236864D01*
X684021Y238918D01*
X684021Y241142D01*
X684872Y243196D01*
X686444Y244768D01*
X688498Y245619D01*
X690722Y245619D01*
X692776Y244768D01*
X694348Y243196D01*
X695199Y241142D01*
X695199Y238918D01*
X694348Y236864D01*
X692776Y235292D01*
X690722Y234441D01*
X688498Y234441D01*
G37*
%LPD*%
%LPC*%
G36*
X688498Y303021D02*
X688498Y303021D01*
X686444Y303872D01*
X684872Y305444D01*
X684021Y307498D01*
X684021Y309722D01*
X684872Y311776D01*
X686444Y313348D01*
X688498Y314199D01*
X690722Y314199D01*
X692776Y313348D01*
X694348Y311776D01*
X695199Y309722D01*
X695199Y307498D01*
X694348Y305444D01*
X692776Y303872D01*
X690722Y303021D01*
X688498Y303021D01*
G37*
%LPD*%
%LPC*%
G36*
X688498Y283971D02*
X688498Y283971D01*
X686444Y284822D01*
X684872Y286394D01*
X684021Y288448D01*
X684021Y290672D01*
X684872Y292726D01*
X686444Y294298D01*
X688498Y295149D01*
X690722Y295149D01*
X692776Y294298D01*
X694348Y292726D01*
X695199Y290672D01*
X695199Y288448D01*
X694348Y286394D01*
X692776Y284822D01*
X690722Y283971D01*
X688498Y283971D01*
G37*
%LPD*%
%LPC*%
G36*
X642778Y283971D02*
X642778Y283971D01*
X640724Y284822D01*
X639152Y286394D01*
X638301Y288448D01*
X638301Y290672D01*
X639152Y292726D01*
X640724Y294298D01*
X642778Y295149D01*
X645002Y295149D01*
X647056Y294298D01*
X648628Y292726D01*
X649479Y290672D01*
X649479Y288448D01*
X648628Y286394D01*
X647056Y284822D01*
X645002Y283971D01*
X642778Y283971D01*
G37*
%LPD*%
%LPC*%
G36*
X1019539Y269639D02*
X1019539Y269639D01*
X1019539Y279192D01*
X1019890Y279137D01*
X1021737Y278537D01*
X1023468Y277655D01*
X1024449Y276942D01*
X1025039Y276513D01*
X1026413Y275139D01*
X1027555Y273568D01*
X1028437Y271837D01*
X1029037Y269990D01*
X1029092Y269639D01*
X1019539Y269639D01*
G37*
%LPD*%
%LPC*%
G36*
X1144539Y269639D02*
X1144539Y269639D01*
X1144539Y279192D01*
X1144890Y279137D01*
X1146737Y278537D01*
X1148468Y277655D01*
X1149449Y276942D01*
X1150039Y276513D01*
X1151413Y275139D01*
X1152555Y273568D01*
X1153437Y271837D01*
X1154037Y269990D01*
X1154092Y269639D01*
X1144539Y269639D01*
G37*
%LPD*%
%LPC*%
G36*
X1144539Y561739D02*
X1144539Y561739D01*
X1144539Y571292D01*
X1144890Y571237D01*
X1146737Y570637D01*
X1148468Y569755D01*
X1150039Y568613D01*
X1151413Y567239D01*
X1152555Y565668D01*
X1153437Y563937D01*
X1154037Y562090D01*
X1154092Y561739D01*
X1144539Y561739D01*
G37*
%LPD*%
%LPC*%
G36*
X1019539Y561739D02*
X1019539Y561739D01*
X1019539Y571292D01*
X1019890Y571237D01*
X1021737Y570637D01*
X1023468Y569755D01*
X1025039Y568613D01*
X1026413Y567239D01*
X1027555Y565668D01*
X1028437Y563937D01*
X1029037Y562090D01*
X1029092Y561739D01*
X1019539Y561739D01*
G37*
%LPD*%
%LPC*%
G36*
X1144539Y264561D02*
X1144539Y264561D01*
X1154092Y264561D01*
X1154037Y264210D01*
X1153437Y262363D01*
X1152555Y260632D01*
X1151413Y259061D01*
X1150039Y257687D01*
X1148468Y256545D01*
X1146737Y255663D01*
X1144890Y255063D01*
X1144539Y255008D01*
X1144539Y264561D01*
G37*
%LPD*%
%LPC*%
G36*
X1019539Y556661D02*
X1019539Y556661D01*
X1029092Y556661D01*
X1029037Y556310D01*
X1028437Y554463D01*
X1027555Y552732D01*
X1026413Y551161D01*
X1025039Y549787D01*
X1023468Y548645D01*
X1021737Y547763D01*
X1019890Y547163D01*
X1019539Y547108D01*
X1019539Y556661D01*
G37*
%LPD*%
%LPC*%
G36*
X1019539Y264561D02*
X1019539Y264561D01*
X1029092Y264561D01*
X1029037Y264210D01*
X1028437Y262363D01*
X1027555Y260632D01*
X1026413Y259061D01*
X1025039Y257687D01*
X1023468Y256545D01*
X1021737Y255663D01*
X1019890Y255063D01*
X1019539Y255008D01*
X1019539Y264561D01*
G37*
%LPD*%
%LPC*%
G36*
X1144539Y556661D02*
X1144539Y556661D01*
X1154092Y556661D01*
X1154037Y556310D01*
X1153437Y554463D01*
X1152555Y552732D01*
X1151413Y551161D01*
X1150039Y549787D01*
X1148468Y548645D01*
X1146737Y547763D01*
X1144890Y547163D01*
X1144539Y547108D01*
X1144539Y556661D01*
G37*
%LPD*%
%LPC*%
G36*
X1129908Y561739D02*
X1129908Y561739D01*
X1129963Y562090D01*
X1130563Y563937D01*
X1131445Y565668D01*
X1132587Y567239D01*
X1133961Y568613D01*
X1135532Y569755D01*
X1137263Y570637D01*
X1139110Y571237D01*
X1139461Y571292D01*
X1139461Y561739D01*
X1129908Y561739D01*
G37*
%LPD*%
%LPC*%
G36*
X1004908Y561739D02*
X1004908Y561739D01*
X1004963Y562090D01*
X1005563Y563937D01*
X1006445Y565668D01*
X1007587Y567239D01*
X1008961Y568613D01*
X1010532Y569755D01*
X1012263Y570637D01*
X1014110Y571237D01*
X1014461Y571292D01*
X1014461Y561739D01*
X1004908Y561739D01*
G37*
%LPD*%
%LPC*%
G36*
X1129908Y269639D02*
X1129908Y269639D01*
X1129963Y269990D01*
X1130563Y271837D01*
X1131445Y273568D01*
X1132587Y275139D01*
X1133961Y276513D01*
X1135532Y277655D01*
X1137263Y278537D01*
X1139110Y279137D01*
X1139461Y279192D01*
X1139461Y269639D01*
X1129908Y269639D01*
G37*
%LPD*%
%LPC*%
G36*
X1004908Y269639D02*
X1004908Y269639D01*
X1004963Y269990D01*
X1005563Y271837D01*
X1006445Y273568D01*
X1007587Y275139D01*
X1008961Y276513D01*
X1010532Y277655D01*
X1012263Y278537D01*
X1014110Y279137D01*
X1014461Y279192D01*
X1014461Y269639D01*
X1004908Y269639D01*
G37*
%LPD*%
%LPC*%
G36*
X1139110Y547163D02*
X1139110Y547163D01*
X1137263Y547763D01*
X1135532Y548645D01*
X1134570Y549344D01*
X1133961Y549787D01*
X1132587Y551161D01*
X1131445Y552732D01*
X1130563Y554463D01*
X1129963Y556310D01*
X1129908Y556661D01*
X1139461Y556661D01*
X1139461Y547108D01*
X1139110Y547163D01*
G37*
%LPD*%
%LPC*%
G36*
X1014110Y547163D02*
X1014110Y547163D01*
X1012263Y547763D01*
X1010532Y548645D01*
X1009570Y549344D01*
X1008961Y549787D01*
X1007587Y551161D01*
X1006445Y552732D01*
X1005563Y554463D01*
X1004963Y556310D01*
X1004908Y556661D01*
X1014461Y556661D01*
X1014461Y547108D01*
X1014110Y547163D01*
G37*
%LPD*%
%LPC*%
G36*
X1139110Y255063D02*
X1139110Y255063D01*
X1137263Y255663D01*
X1135532Y256545D01*
X1133961Y257687D01*
X1132587Y259061D01*
X1131445Y260632D01*
X1130563Y262363D01*
X1129963Y264210D01*
X1129908Y264561D01*
X1139461Y264561D01*
X1139461Y255008D01*
X1139110Y255063D01*
G37*
%LPD*%
%LPC*%
G36*
X1014110Y255063D02*
X1014110Y255063D01*
X1012263Y255663D01*
X1010532Y256545D01*
X1008961Y257687D01*
X1007587Y259061D01*
X1006445Y260632D01*
X1005563Y262363D01*
X1004963Y264210D01*
X1004908Y264561D01*
X1014461Y264561D01*
X1014461Y255008D01*
X1014110Y255063D01*
G37*
%LPD*%
%LPC*%
G36*
X891499Y421599D02*
X891499Y421599D01*
X891499Y428320D01*
X892662Y427942D01*
X894001Y427260D01*
X895215Y426377D01*
X896277Y425315D01*
X897160Y424101D01*
X897842Y422762D01*
X898220Y421599D01*
X891499Y421599D01*
G37*
%LPD*%
%LPC*%
G36*
X879780Y421599D02*
X879780Y421599D01*
X880158Y422762D01*
X880840Y424101D01*
X881723Y425315D01*
X882785Y426377D01*
X883999Y427260D01*
X885338Y427942D01*
X886501Y428320D01*
X886501Y421599D01*
X879780Y421599D01*
G37*
%LPD*%
%LPC*%
G36*
X891499Y416601D02*
X891499Y416601D01*
X898220Y416601D01*
X897842Y415438D01*
X897160Y414099D01*
X896277Y412885D01*
X895215Y411823D01*
X894001Y410940D01*
X892662Y410258D01*
X891499Y409880D01*
X891499Y416601D01*
G37*
%LPD*%
%LPC*%
G36*
X885338Y410258D02*
X885338Y410258D01*
X883999Y410940D01*
X882785Y411823D01*
X881723Y412885D01*
X880840Y414099D01*
X880158Y415438D01*
X879780Y416601D01*
X886501Y416601D01*
X886501Y409880D01*
X885338Y410258D01*
G37*
%LPD*%
%LPC*%
G36*
X558409Y157239D02*
X558409Y157239D01*
X558409Y163639D01*
X558730Y163576D01*
X560364Y162899D01*
X561835Y161916D01*
X563086Y160665D01*
X564069Y159194D01*
X564746Y157560D01*
X564809Y157239D01*
X558409Y157239D01*
G37*
%LPD*%
%LPC*%
G36*
X547411Y157239D02*
X547411Y157239D01*
X547474Y157560D01*
X548151Y159194D01*
X549134Y160665D01*
X550385Y161916D01*
X551856Y162899D01*
X553490Y163576D01*
X553811Y163639D01*
X553811Y157239D01*
X547411Y157239D01*
G37*
%LPD*%
%LPC*%
G36*
X558409Y152641D02*
X558409Y152641D01*
X564809Y152641D01*
X564746Y152320D01*
X564069Y150686D01*
X563086Y149215D01*
X561835Y147964D01*
X560364Y146981D01*
X558730Y146304D01*
X558409Y146241D01*
X558409Y152641D01*
G37*
%LPD*%
%LPC*%
G36*
X553490Y146304D02*
X553490Y146304D01*
X551856Y146981D01*
X550385Y147964D01*
X549134Y149215D01*
X548151Y150686D01*
X547474Y152320D01*
X547411Y152641D01*
X553811Y152641D01*
X553811Y146241D01*
X553490Y146304D01*
G37*
%LPD*%
%LPC*%
G36*
X451122Y710622D02*
X451122Y710622D01*
X451122Y716893D01*
X451456Y716827D01*
X453051Y716166D01*
X454487Y715207D01*
X455707Y713987D01*
X456666Y712551D01*
X457327Y710956D01*
X457393Y710622D01*
X451122Y710622D01*
G37*
%LPD*%
%LPC*%
G36*
X527322Y710622D02*
X527322Y710622D01*
X527322Y716893D01*
X527656Y716827D01*
X529251Y716166D01*
X530687Y715207D01*
X531907Y713987D01*
X532866Y712551D01*
X533527Y710956D01*
X533593Y710622D01*
X527322Y710622D01*
G37*
%LPD*%
%LPC*%
G36*
X552722Y456622D02*
X552722Y456622D01*
X552722Y462893D01*
X553056Y462827D01*
X554651Y462166D01*
X556087Y461207D01*
X557307Y459987D01*
X558266Y458551D01*
X558927Y456956D01*
X558993Y456622D01*
X552722Y456622D01*
G37*
%LPD*%
%LPC*%
G36*
X527322Y456622D02*
X527322Y456622D01*
X527322Y462893D01*
X527656Y462827D01*
X529251Y462166D01*
X530687Y461207D01*
X531907Y459987D01*
X532866Y458551D01*
X533527Y456956D01*
X533593Y456622D01*
X527322Y456622D01*
G37*
%LPD*%
%LPC*%
G36*
X527322Y482022D02*
X527322Y482022D01*
X527322Y488293D01*
X527656Y488227D01*
X529251Y487566D01*
X530687Y486607D01*
X531907Y485387D01*
X532866Y483951D01*
X533527Y482356D01*
X533593Y482022D01*
X527322Y482022D01*
G37*
%LPD*%
%LPC*%
G36*
X516607Y456622D02*
X516607Y456622D01*
X516673Y456956D01*
X517334Y458551D01*
X518293Y459987D01*
X519513Y461207D01*
X520949Y462166D01*
X522544Y462827D01*
X522878Y462893D01*
X522878Y456622D01*
X516607Y456622D01*
G37*
%LPD*%
%LPC*%
G36*
X552722Y452178D02*
X552722Y452178D01*
X558993Y452178D01*
X558927Y451844D01*
X558266Y450249D01*
X557307Y448813D01*
X556087Y447593D01*
X554651Y446634D01*
X553056Y445973D01*
X552722Y445907D01*
X552722Y452178D01*
G37*
%LPD*%
%LPC*%
G36*
X542007Y456622D02*
X542007Y456622D01*
X542073Y456956D01*
X542734Y458551D01*
X543693Y459987D01*
X544913Y461207D01*
X546349Y462166D01*
X547944Y462827D01*
X548278Y462893D01*
X548278Y456622D01*
X542007Y456622D01*
G37*
%LPD*%
%LPC*%
G36*
X451122Y706178D02*
X451122Y706178D01*
X457393Y706178D01*
X457327Y705844D01*
X456666Y704249D01*
X455707Y702813D01*
X454487Y701593D01*
X453051Y700634D01*
X451456Y699973D01*
X451122Y699907D01*
X451122Y706178D01*
G37*
%LPD*%
%LPC*%
G36*
X516607Y710622D02*
X516607Y710622D01*
X516673Y710956D01*
X517334Y712551D01*
X518293Y713987D01*
X519513Y715207D01*
X520949Y716166D01*
X522544Y716827D01*
X522878Y716893D01*
X522878Y710622D01*
X516607Y710622D01*
G37*
%LPD*%
%LPC*%
G36*
X527322Y477578D02*
X527322Y477578D01*
X533593Y477578D01*
X533527Y477244D01*
X532866Y475649D01*
X531907Y474213D01*
X530687Y472993D01*
X529251Y472034D01*
X527656Y471373D01*
X527322Y471307D01*
X527322Y477578D01*
G37*
%LPD*%
%LPC*%
G36*
X516607Y482022D02*
X516607Y482022D01*
X516673Y482356D01*
X517334Y483951D01*
X518293Y485387D01*
X519513Y486607D01*
X520949Y487566D01*
X522544Y488227D01*
X522878Y488293D01*
X522878Y482022D01*
X516607Y482022D01*
G37*
%LPD*%
%LPC*%
G36*
X440407Y710622D02*
X440407Y710622D01*
X440473Y710956D01*
X441134Y712551D01*
X442093Y713987D01*
X443313Y715207D01*
X444749Y716166D01*
X446344Y716827D01*
X446678Y716893D01*
X446678Y710622D01*
X440407Y710622D01*
G37*
%LPD*%
%LPC*%
G36*
X527322Y452178D02*
X527322Y452178D01*
X533593Y452178D01*
X533527Y451844D01*
X532866Y450249D01*
X531907Y448813D01*
X530687Y447593D01*
X529251Y446634D01*
X527656Y445973D01*
X527322Y445907D01*
X527322Y452178D01*
G37*
%LPD*%
%LPC*%
G36*
X527322Y706178D02*
X527322Y706178D01*
X533593Y706178D01*
X533527Y705844D01*
X532866Y704249D01*
X531907Y702813D01*
X530687Y701593D01*
X529251Y700634D01*
X527656Y699973D01*
X527322Y699907D01*
X527322Y706178D01*
G37*
%LPD*%
%LPC*%
G36*
X547944Y445973D02*
X547944Y445973D01*
X546349Y446634D01*
X544913Y447593D01*
X543693Y448813D01*
X542734Y450249D01*
X542073Y451844D01*
X542007Y452178D01*
X548278Y452178D01*
X548278Y445907D01*
X547944Y445973D01*
G37*
%LPD*%
%LPC*%
G36*
X522544Y445973D02*
X522544Y445973D01*
X520949Y446634D01*
X519513Y447593D01*
X518293Y448813D01*
X517334Y450249D01*
X516673Y451844D01*
X516607Y452178D01*
X522878Y452178D01*
X522878Y445907D01*
X522544Y445973D01*
G37*
%LPD*%
%LPC*%
G36*
X522544Y699973D02*
X522544Y699973D01*
X520949Y700634D01*
X519513Y701593D01*
X518293Y702813D01*
X517334Y704249D01*
X516673Y705844D01*
X516607Y706178D01*
X522878Y706178D01*
X522878Y699907D01*
X522544Y699973D01*
G37*
%LPD*%
%LPC*%
G36*
X446344Y699973D02*
X446344Y699973D01*
X444749Y700634D01*
X443313Y701593D01*
X442093Y702813D01*
X441134Y704249D01*
X440473Y705844D01*
X440407Y706178D01*
X446678Y706178D01*
X446678Y699907D01*
X446344Y699973D01*
G37*
%LPD*%
%LPC*%
G36*
X522544Y471373D02*
X522544Y471373D01*
X520949Y472034D01*
X519513Y472993D01*
X518293Y474213D01*
X517334Y475649D01*
X516673Y477244D01*
X516607Y477578D01*
X522878Y477578D01*
X522878Y471307D01*
X522544Y471373D01*
G37*
%LPD*%
%LPC*%
G36*
X1016999Y267099D02*
X1016999Y267099D01*
X1016999Y267101D01*
X1017001Y267101D01*
X1017001Y267099D01*
X1016999Y267099D01*
G37*
%LPD*%
%LPC*%
G36*
X1141999Y559199D02*
X1141999Y559199D01*
X1141999Y559201D01*
X1142001Y559201D01*
X1142001Y559199D01*
X1141999Y559199D01*
G37*
%LPD*%
%LPC*%
G36*
X1141999Y267099D02*
X1141999Y267099D01*
X1141999Y267101D01*
X1142001Y267101D01*
X1142001Y267099D01*
X1141999Y267099D01*
G37*
%LPD*%
%LPC*%
G36*
X1016999Y559199D02*
X1016999Y559199D01*
X1016999Y559201D01*
X1017001Y559201D01*
X1017001Y559199D01*
X1016999Y559199D01*
G37*
%LPD*%
D10*
X626110Y154940D03*
X601110Y154940D03*
X581110Y154940D03*
X556110Y154940D03*
D11*
X656810Y127840D03*
X525410Y127840D03*
D12*
X800500Y101600D03*
X825500Y101600D03*
X850500Y101600D03*
D13*
X1142000Y609200D03*
X1142000Y559200D03*
X1017000Y559200D03*
X1017000Y609200D03*
X1142000Y317100D03*
X1142000Y267100D03*
X1017000Y267100D03*
X1017000Y317100D03*
D12*
X165500Y101600D03*
X190500Y101600D03*
X215500Y101600D03*
D14*
X702900Y454400D03*
X702900Y479800D03*
X677500Y454400D03*
X677500Y479800D03*
X652100Y454400D03*
X652100Y479800D03*
X626700Y454400D03*
X626700Y479800D03*
X601300Y454400D03*
X601300Y479800D03*
X575900Y454400D03*
X575900Y479800D03*
X550500Y454400D03*
X550500Y479800D03*
X525100Y454400D03*
X525100Y479800D03*
X499700Y454400D03*
X499700Y479800D03*
X474300Y454400D03*
X474300Y479800D03*
X448900Y454400D03*
X448900Y479800D03*
X423500Y454400D03*
X423500Y479800D03*
X398100Y454400D03*
X398100Y479800D03*
X372700Y454400D03*
X372700Y479800D03*
X347300Y454400D03*
X347300Y479800D03*
X321900Y454400D03*
X321900Y479800D03*
X296500Y454400D03*
X296500Y479800D03*
X271100Y454400D03*
X271100Y479800D03*
X702900Y708400D03*
X702900Y733800D03*
X677500Y708400D03*
X677500Y733800D03*
X652100Y708400D03*
X652100Y733800D03*
X626700Y708400D03*
X626700Y733800D03*
X601300Y708400D03*
X601300Y733800D03*
X575900Y708400D03*
X575900Y733800D03*
X550500Y708400D03*
X550500Y733800D03*
X525100Y708400D03*
X525100Y733800D03*
X499700Y708400D03*
X499700Y733800D03*
X474300Y708400D03*
X474300Y733800D03*
X448900Y708400D03*
X448900Y733800D03*
X423500Y708400D03*
X423500Y733800D03*
X398100Y708400D03*
X398100Y733800D03*
X372700Y708400D03*
X372700Y733800D03*
X347300Y708400D03*
X347300Y733800D03*
X321900Y708400D03*
X321900Y733800D03*
X296500Y708400D03*
X296500Y733800D03*
X271100Y708400D03*
X271100Y733800D03*
D12*
X127000Y419100D03*
X127000Y444500D03*
X127000Y469900D03*
X127000Y495300D03*
X127000Y520700D03*
X127000Y546100D03*
X127000Y571500D03*
X127000Y596900D03*
X127000Y622300D03*
X127000Y647700D03*
X127000Y673100D03*
X127000Y698500D03*
X127000Y723900D03*
X127000Y749300D03*
X127000Y774700D03*
X127000Y800100D03*
X127000Y825500D03*
X127000Y850900D03*
X127000Y876300D03*
X127000Y901700D03*
X889000Y419100D03*
X889000Y444500D03*
X889000Y469900D03*
X889000Y495300D03*
X889000Y520700D03*
X889000Y546100D03*
X889000Y571500D03*
X889000Y596900D03*
X889000Y622300D03*
X889000Y647700D03*
X889000Y673100D03*
X889000Y698500D03*
X889000Y723900D03*
X889000Y749300D03*
X889000Y774700D03*
X889000Y800100D03*
X889000Y825500D03*
X889000Y850900D03*
X889000Y876300D03*
X889000Y901700D03*
D15*
X889000Y374650D03*
X889000Y946150D03*
X127000Y374650D03*
X127000Y946150D03*
D16*
X38100Y977900D03*
X1231900Y38100D03*
X38100Y38100D03*
X1231900Y977900D03*
D17*
X83820Y129540D03*
X83820Y149860D03*
X1117600Y901700D03*
X1117600Y825500D03*
X1117600Y749300D03*
X643890Y327660D03*
X1193800Y342900D03*
X1193800Y635000D03*
X604520Y208280D03*
X581660Y213360D03*
X640080Y201930D03*
X640080Y220980D03*
X689610Y240030D03*
X689610Y220980D03*
X689610Y201930D03*
X643890Y308610D03*
X643890Y289560D03*
X689610Y327660D03*
X689610Y308610D03*
X689610Y289560D03*
X640080Y240030D03*
M02*
