M48
;GenerationSoftware,Autodesk,EAGLE,9.6.2*%
;CreationDate,2022-12-16T01:01:18Z*%
FMAT,2
ICI,OFF
METRIC,TZ,000.000
T9C0.305
T8C0.889
T7C0.920
T6C1.000
T5C1.400
T4C2.300
T3C2.500
T2C3.000
T1C3.175
%
G90
M71
T1
X123190Y97790
X3810Y3810
X123190Y3810
X3810Y97790
T2
X12700Y94615
X12700Y37465
X88900Y94615
X88900Y37465
T3
X24050Y17160
X14050Y17160
X87550Y17160
X77550Y17160
T4
X52541Y12784
X65681Y12784
T5
X101700Y55920
X101700Y31710
X101700Y26710
X114200Y26710
X114200Y31710
X101700Y60920
X114200Y55920
X114200Y60920
T6
X88900Y80010
X88900Y82550
X88900Y85090
X12700Y41910
X12700Y44450
X12700Y46990
X12700Y49530
X88900Y87630
X88900Y90170
X80050Y10160
X82550Y10160
X85050Y10160
X88900Y77470
X88900Y59690
X88900Y74930
X88900Y62230
X88900Y64770
X88900Y67310
X88900Y69850
X88900Y72390
X16550Y10160
X19050Y10160
X21550Y10160
X88900Y57150
X88900Y54610
X88900Y52070
X88900Y49530
X88900Y46990
X88900Y44450
X88900Y41910
X12700Y90170
X12700Y87630
X12700Y85090
X12700Y82550
X12700Y80010
X12700Y77470
X12700Y74930
X12700Y72390
X12700Y69850
X12700Y67310
X12700Y64770
X12700Y62230
X12700Y59690
X12700Y57150
X12700Y54610
X12700Y52070
T7
X55611Y15494
X58111Y15494
X60111Y15494
X62611Y15494
T8
X37270Y47980
X34730Y45440
X34730Y47980
X32190Y45440
X32190Y47980
X29650Y45440
X29650Y47980
X27110Y45440
X27110Y47980
X70290Y70840
X70290Y73380
X67750Y70840
X67750Y73380
X65210Y70840
X65210Y73380
X62670Y70840
X62670Y73380
X60130Y70840
X60130Y73380
X57590Y70840
X57590Y73380
X55050Y70840
X55050Y73380
X52510Y70840
X52510Y73380
X49970Y70840
X49970Y73380
X47430Y70840
X47430Y73380
X44890Y70840
X44890Y73380
X42350Y70840
X42350Y73380
X39810Y70840
X39810Y73380
X37270Y70840
X37270Y73380
X34730Y70840
X34730Y73380
X32190Y70840
X32190Y73380
X29650Y70840
X29650Y73380
X27110Y70840
X27110Y73380
X37270Y45440
X39810Y47980
X39810Y45440
X42350Y47980
X42350Y45440
X44890Y47980
X44890Y45440
X47430Y47980
X47430Y45440
X49970Y47980
X49970Y45440
X52510Y47980
X52510Y45440
X55050Y47980
X55050Y45440
X57590Y47980
X57590Y45440
X60130Y47980
X60130Y45440
X62670Y47980
X62670Y45440
X65210Y47980
X65210Y45440
X67750Y47980
X67750Y45440
X70290Y47980
X70290Y45440
T9
X64008Y24003
X68961Y28956
X68961Y30861
X68961Y32766
X64389Y28956
X64389Y30861
X68961Y20193
X68961Y22098
X68961Y24003
X64008Y22098
X64008Y20193
X58166Y21336
X60452Y20828
X119380Y63500
X119380Y34290
X64389Y32766
X111760Y74930
X111760Y82550
X111760Y90170
X8382Y14986
X8382Y12954
M30