G04 EAGLE Gerber RS-274X export*
G75*
%MOMM*%
%FSLAX34Y34*%
%LPD*%
%INSoldermask Bottom*%
%IPPOS*%
%AMOC8*
5,1,8,0,0,1.08239X$1,22.5*%
G01*
%ADD10R,1.440400X1.440400*%
%ADD11C,1.440400*%
%ADD12C,3.372400*%
%ADD13C,1.552400*%
%ADD14C,2.652400*%
%ADD15C,2.112400*%
%ADD16R,1.676400X1.676400*%
%ADD17P,1.814519X8X202.500000*%
%ADD18R,1.828800X1.828800*%
%ADD19C,1.828800*%
%ADD20C,4.168400*%
%ADD21C,4.597400*%
%ADD22C,0.609600*%
%ADD23C,1.168400*%
%ADD24R,2.152400X4.252400*%


D10*
X626110Y154940D03*
D11*
X601110Y154940D03*
X581110Y154940D03*
X556110Y154940D03*
D12*
X656810Y127840D03*
X525410Y127840D03*
D13*
X800500Y101600D03*
X825500Y101600D03*
X850500Y101600D03*
D14*
X775500Y171600D03*
X875500Y171600D03*
D15*
X1142000Y609200D03*
X1142000Y559200D03*
X1017000Y559200D03*
X1017000Y609200D03*
X1142000Y317100D03*
X1142000Y267100D03*
X1017000Y267100D03*
X1017000Y317100D03*
D13*
X165500Y101600D03*
X190500Y101600D03*
X215500Y101600D03*
D14*
X140500Y171600D03*
X240500Y171600D03*
D16*
X702900Y454400D03*
D17*
X702900Y479800D03*
X677500Y454400D03*
X677500Y479800D03*
X652100Y454400D03*
X652100Y479800D03*
X626700Y454400D03*
X626700Y479800D03*
X601300Y454400D03*
X601300Y479800D03*
X575900Y454400D03*
X575900Y479800D03*
X550500Y454400D03*
X550500Y479800D03*
X525100Y454400D03*
X525100Y479800D03*
X499700Y454400D03*
X499700Y479800D03*
X474300Y454400D03*
X474300Y479800D03*
X448900Y454400D03*
X448900Y479800D03*
X423500Y454400D03*
X423500Y479800D03*
X398100Y454400D03*
X398100Y479800D03*
X372700Y454400D03*
X372700Y479800D03*
X347300Y454400D03*
X347300Y479800D03*
X321900Y454400D03*
X321900Y479800D03*
X296500Y454400D03*
X296500Y479800D03*
X271100Y454400D03*
X271100Y479800D03*
D16*
X702900Y708400D03*
D17*
X702900Y733800D03*
X677500Y708400D03*
X677500Y733800D03*
X652100Y708400D03*
X652100Y733800D03*
X626700Y708400D03*
X626700Y733800D03*
X601300Y708400D03*
X601300Y733800D03*
X575900Y708400D03*
X575900Y733800D03*
X550500Y708400D03*
X550500Y733800D03*
X525100Y708400D03*
X525100Y733800D03*
X499700Y708400D03*
X499700Y733800D03*
X474300Y708400D03*
X474300Y733800D03*
X448900Y708400D03*
X448900Y733800D03*
X423500Y708400D03*
X423500Y733800D03*
X398100Y708400D03*
X398100Y733800D03*
X372700Y708400D03*
X372700Y733800D03*
X347300Y708400D03*
X347300Y733800D03*
X321900Y708400D03*
X321900Y733800D03*
X296500Y708400D03*
X296500Y733800D03*
X271100Y708400D03*
X271100Y733800D03*
D18*
X127000Y419100D03*
D19*
X127000Y444500D03*
X127000Y469900D03*
X127000Y495300D03*
X127000Y520700D03*
X127000Y546100D03*
X127000Y571500D03*
X127000Y596900D03*
X127000Y622300D03*
X127000Y647700D03*
X127000Y673100D03*
X127000Y698500D03*
X127000Y723900D03*
X127000Y749300D03*
X127000Y774700D03*
X127000Y800100D03*
X127000Y825500D03*
X127000Y850900D03*
X127000Y876300D03*
X127000Y901700D03*
D18*
X889000Y419100D03*
D19*
X889000Y444500D03*
X889000Y469900D03*
X889000Y495300D03*
X889000Y520700D03*
X889000Y546100D03*
X889000Y571500D03*
X889000Y596900D03*
X889000Y622300D03*
X889000Y647700D03*
X889000Y673100D03*
X889000Y698500D03*
X889000Y723900D03*
X889000Y749300D03*
X889000Y774700D03*
X889000Y800100D03*
X889000Y825500D03*
X889000Y850900D03*
X889000Y876300D03*
X889000Y901700D03*
D20*
X889000Y374650D03*
X889000Y946150D03*
X127000Y374650D03*
X127000Y946150D03*
D21*
X38100Y977900D03*
X1231900Y38100D03*
X38100Y38100D03*
X1231900Y977900D03*
D22*
X1198880Y88900D02*
X1198882Y89087D01*
X1198889Y89274D01*
X1198901Y89461D01*
X1198917Y89647D01*
X1198937Y89833D01*
X1198962Y90018D01*
X1198992Y90203D01*
X1199026Y90387D01*
X1199065Y90570D01*
X1199108Y90752D01*
X1199156Y90932D01*
X1199208Y91112D01*
X1199265Y91290D01*
X1199325Y91467D01*
X1199391Y91642D01*
X1199460Y91816D01*
X1199534Y91988D01*
X1199612Y92158D01*
X1199694Y92326D01*
X1199780Y92492D01*
X1199870Y92656D01*
X1199964Y92817D01*
X1200062Y92977D01*
X1200164Y93133D01*
X1200270Y93288D01*
X1200380Y93439D01*
X1200493Y93588D01*
X1200610Y93734D01*
X1200730Y93877D01*
X1200854Y94017D01*
X1200981Y94154D01*
X1201112Y94288D01*
X1201246Y94419D01*
X1201383Y94546D01*
X1201523Y94670D01*
X1201666Y94790D01*
X1201812Y94907D01*
X1201961Y95020D01*
X1202112Y95130D01*
X1202267Y95236D01*
X1202423Y95338D01*
X1202583Y95436D01*
X1202744Y95530D01*
X1202908Y95620D01*
X1203074Y95706D01*
X1203242Y95788D01*
X1203412Y95866D01*
X1203584Y95940D01*
X1203758Y96009D01*
X1203933Y96075D01*
X1204110Y96135D01*
X1204288Y96192D01*
X1204468Y96244D01*
X1204648Y96292D01*
X1204830Y96335D01*
X1205013Y96374D01*
X1205197Y96408D01*
X1205382Y96438D01*
X1205567Y96463D01*
X1205753Y96483D01*
X1205939Y96499D01*
X1206126Y96511D01*
X1206313Y96518D01*
X1206500Y96520D01*
X1206687Y96518D01*
X1206874Y96511D01*
X1207061Y96499D01*
X1207247Y96483D01*
X1207433Y96463D01*
X1207618Y96438D01*
X1207803Y96408D01*
X1207987Y96374D01*
X1208170Y96335D01*
X1208352Y96292D01*
X1208532Y96244D01*
X1208712Y96192D01*
X1208890Y96135D01*
X1209067Y96075D01*
X1209242Y96009D01*
X1209416Y95940D01*
X1209588Y95866D01*
X1209758Y95788D01*
X1209926Y95706D01*
X1210092Y95620D01*
X1210256Y95530D01*
X1210417Y95436D01*
X1210577Y95338D01*
X1210733Y95236D01*
X1210888Y95130D01*
X1211039Y95020D01*
X1211188Y94907D01*
X1211334Y94790D01*
X1211477Y94670D01*
X1211617Y94546D01*
X1211754Y94419D01*
X1211888Y94288D01*
X1212019Y94154D01*
X1212146Y94017D01*
X1212270Y93877D01*
X1212390Y93734D01*
X1212507Y93588D01*
X1212620Y93439D01*
X1212730Y93288D01*
X1212836Y93133D01*
X1212938Y92977D01*
X1213036Y92817D01*
X1213130Y92656D01*
X1213220Y92492D01*
X1213306Y92326D01*
X1213388Y92158D01*
X1213466Y91988D01*
X1213540Y91816D01*
X1213609Y91642D01*
X1213675Y91467D01*
X1213735Y91290D01*
X1213792Y91112D01*
X1213844Y90932D01*
X1213892Y90752D01*
X1213935Y90570D01*
X1213974Y90387D01*
X1214008Y90203D01*
X1214038Y90018D01*
X1214063Y89833D01*
X1214083Y89647D01*
X1214099Y89461D01*
X1214111Y89274D01*
X1214118Y89087D01*
X1214120Y88900D01*
X1214118Y88713D01*
X1214111Y88526D01*
X1214099Y88339D01*
X1214083Y88153D01*
X1214063Y87967D01*
X1214038Y87782D01*
X1214008Y87597D01*
X1213974Y87413D01*
X1213935Y87230D01*
X1213892Y87048D01*
X1213844Y86868D01*
X1213792Y86688D01*
X1213735Y86510D01*
X1213675Y86333D01*
X1213609Y86158D01*
X1213540Y85984D01*
X1213466Y85812D01*
X1213388Y85642D01*
X1213306Y85474D01*
X1213220Y85308D01*
X1213130Y85144D01*
X1213036Y84983D01*
X1212938Y84823D01*
X1212836Y84667D01*
X1212730Y84512D01*
X1212620Y84361D01*
X1212507Y84212D01*
X1212390Y84066D01*
X1212270Y83923D01*
X1212146Y83783D01*
X1212019Y83646D01*
X1211888Y83512D01*
X1211754Y83381D01*
X1211617Y83254D01*
X1211477Y83130D01*
X1211334Y83010D01*
X1211188Y82893D01*
X1211039Y82780D01*
X1210888Y82670D01*
X1210733Y82564D01*
X1210577Y82462D01*
X1210417Y82364D01*
X1210256Y82270D01*
X1210092Y82180D01*
X1209926Y82094D01*
X1209758Y82012D01*
X1209588Y81934D01*
X1209416Y81860D01*
X1209242Y81791D01*
X1209067Y81725D01*
X1208890Y81665D01*
X1208712Y81608D01*
X1208532Y81556D01*
X1208352Y81508D01*
X1208170Y81465D01*
X1207987Y81426D01*
X1207803Y81392D01*
X1207618Y81362D01*
X1207433Y81337D01*
X1207247Y81317D01*
X1207061Y81301D01*
X1206874Y81289D01*
X1206687Y81282D01*
X1206500Y81280D01*
X1206313Y81282D01*
X1206126Y81289D01*
X1205939Y81301D01*
X1205753Y81317D01*
X1205567Y81337D01*
X1205382Y81362D01*
X1205197Y81392D01*
X1205013Y81426D01*
X1204830Y81465D01*
X1204648Y81508D01*
X1204468Y81556D01*
X1204288Y81608D01*
X1204110Y81665D01*
X1203933Y81725D01*
X1203758Y81791D01*
X1203584Y81860D01*
X1203412Y81934D01*
X1203242Y82012D01*
X1203074Y82094D01*
X1202908Y82180D01*
X1202744Y82270D01*
X1202583Y82364D01*
X1202423Y82462D01*
X1202267Y82564D01*
X1202112Y82670D01*
X1201961Y82780D01*
X1201812Y82893D01*
X1201666Y83010D01*
X1201523Y83130D01*
X1201383Y83254D01*
X1201246Y83381D01*
X1201112Y83512D01*
X1200981Y83646D01*
X1200854Y83783D01*
X1200730Y83923D01*
X1200610Y84066D01*
X1200493Y84212D01*
X1200380Y84361D01*
X1200270Y84512D01*
X1200164Y84667D01*
X1200062Y84823D01*
X1199964Y84983D01*
X1199870Y85144D01*
X1199780Y85308D01*
X1199694Y85474D01*
X1199612Y85642D01*
X1199534Y85812D01*
X1199460Y85984D01*
X1199391Y86158D01*
X1199325Y86333D01*
X1199265Y86510D01*
X1199208Y86688D01*
X1199156Y86868D01*
X1199108Y87048D01*
X1199065Y87230D01*
X1199026Y87413D01*
X1198992Y87597D01*
X1198962Y87782D01*
X1198937Y87967D01*
X1198917Y88153D01*
X1198901Y88339D01*
X1198889Y88526D01*
X1198882Y88713D01*
X1198880Y88900D01*
D23*
X1206500Y88900D03*
D22*
X1198880Y927100D02*
X1198882Y927287D01*
X1198889Y927474D01*
X1198901Y927661D01*
X1198917Y927847D01*
X1198937Y928033D01*
X1198962Y928218D01*
X1198992Y928403D01*
X1199026Y928587D01*
X1199065Y928770D01*
X1199108Y928952D01*
X1199156Y929132D01*
X1199208Y929312D01*
X1199265Y929490D01*
X1199325Y929667D01*
X1199391Y929842D01*
X1199460Y930016D01*
X1199534Y930188D01*
X1199612Y930358D01*
X1199694Y930526D01*
X1199780Y930692D01*
X1199870Y930856D01*
X1199964Y931017D01*
X1200062Y931177D01*
X1200164Y931333D01*
X1200270Y931488D01*
X1200380Y931639D01*
X1200493Y931788D01*
X1200610Y931934D01*
X1200730Y932077D01*
X1200854Y932217D01*
X1200981Y932354D01*
X1201112Y932488D01*
X1201246Y932619D01*
X1201383Y932746D01*
X1201523Y932870D01*
X1201666Y932990D01*
X1201812Y933107D01*
X1201961Y933220D01*
X1202112Y933330D01*
X1202267Y933436D01*
X1202423Y933538D01*
X1202583Y933636D01*
X1202744Y933730D01*
X1202908Y933820D01*
X1203074Y933906D01*
X1203242Y933988D01*
X1203412Y934066D01*
X1203584Y934140D01*
X1203758Y934209D01*
X1203933Y934275D01*
X1204110Y934335D01*
X1204288Y934392D01*
X1204468Y934444D01*
X1204648Y934492D01*
X1204830Y934535D01*
X1205013Y934574D01*
X1205197Y934608D01*
X1205382Y934638D01*
X1205567Y934663D01*
X1205753Y934683D01*
X1205939Y934699D01*
X1206126Y934711D01*
X1206313Y934718D01*
X1206500Y934720D01*
X1206687Y934718D01*
X1206874Y934711D01*
X1207061Y934699D01*
X1207247Y934683D01*
X1207433Y934663D01*
X1207618Y934638D01*
X1207803Y934608D01*
X1207987Y934574D01*
X1208170Y934535D01*
X1208352Y934492D01*
X1208532Y934444D01*
X1208712Y934392D01*
X1208890Y934335D01*
X1209067Y934275D01*
X1209242Y934209D01*
X1209416Y934140D01*
X1209588Y934066D01*
X1209758Y933988D01*
X1209926Y933906D01*
X1210092Y933820D01*
X1210256Y933730D01*
X1210417Y933636D01*
X1210577Y933538D01*
X1210733Y933436D01*
X1210888Y933330D01*
X1211039Y933220D01*
X1211188Y933107D01*
X1211334Y932990D01*
X1211477Y932870D01*
X1211617Y932746D01*
X1211754Y932619D01*
X1211888Y932488D01*
X1212019Y932354D01*
X1212146Y932217D01*
X1212270Y932077D01*
X1212390Y931934D01*
X1212507Y931788D01*
X1212620Y931639D01*
X1212730Y931488D01*
X1212836Y931333D01*
X1212938Y931177D01*
X1213036Y931017D01*
X1213130Y930856D01*
X1213220Y930692D01*
X1213306Y930526D01*
X1213388Y930358D01*
X1213466Y930188D01*
X1213540Y930016D01*
X1213609Y929842D01*
X1213675Y929667D01*
X1213735Y929490D01*
X1213792Y929312D01*
X1213844Y929132D01*
X1213892Y928952D01*
X1213935Y928770D01*
X1213974Y928587D01*
X1214008Y928403D01*
X1214038Y928218D01*
X1214063Y928033D01*
X1214083Y927847D01*
X1214099Y927661D01*
X1214111Y927474D01*
X1214118Y927287D01*
X1214120Y927100D01*
X1214118Y926913D01*
X1214111Y926726D01*
X1214099Y926539D01*
X1214083Y926353D01*
X1214063Y926167D01*
X1214038Y925982D01*
X1214008Y925797D01*
X1213974Y925613D01*
X1213935Y925430D01*
X1213892Y925248D01*
X1213844Y925068D01*
X1213792Y924888D01*
X1213735Y924710D01*
X1213675Y924533D01*
X1213609Y924358D01*
X1213540Y924184D01*
X1213466Y924012D01*
X1213388Y923842D01*
X1213306Y923674D01*
X1213220Y923508D01*
X1213130Y923344D01*
X1213036Y923183D01*
X1212938Y923023D01*
X1212836Y922867D01*
X1212730Y922712D01*
X1212620Y922561D01*
X1212507Y922412D01*
X1212390Y922266D01*
X1212270Y922123D01*
X1212146Y921983D01*
X1212019Y921846D01*
X1211888Y921712D01*
X1211754Y921581D01*
X1211617Y921454D01*
X1211477Y921330D01*
X1211334Y921210D01*
X1211188Y921093D01*
X1211039Y920980D01*
X1210888Y920870D01*
X1210733Y920764D01*
X1210577Y920662D01*
X1210417Y920564D01*
X1210256Y920470D01*
X1210092Y920380D01*
X1209926Y920294D01*
X1209758Y920212D01*
X1209588Y920134D01*
X1209416Y920060D01*
X1209242Y919991D01*
X1209067Y919925D01*
X1208890Y919865D01*
X1208712Y919808D01*
X1208532Y919756D01*
X1208352Y919708D01*
X1208170Y919665D01*
X1207987Y919626D01*
X1207803Y919592D01*
X1207618Y919562D01*
X1207433Y919537D01*
X1207247Y919517D01*
X1207061Y919501D01*
X1206874Y919489D01*
X1206687Y919482D01*
X1206500Y919480D01*
X1206313Y919482D01*
X1206126Y919489D01*
X1205939Y919501D01*
X1205753Y919517D01*
X1205567Y919537D01*
X1205382Y919562D01*
X1205197Y919592D01*
X1205013Y919626D01*
X1204830Y919665D01*
X1204648Y919708D01*
X1204468Y919756D01*
X1204288Y919808D01*
X1204110Y919865D01*
X1203933Y919925D01*
X1203758Y919991D01*
X1203584Y920060D01*
X1203412Y920134D01*
X1203242Y920212D01*
X1203074Y920294D01*
X1202908Y920380D01*
X1202744Y920470D01*
X1202583Y920564D01*
X1202423Y920662D01*
X1202267Y920764D01*
X1202112Y920870D01*
X1201961Y920980D01*
X1201812Y921093D01*
X1201666Y921210D01*
X1201523Y921330D01*
X1201383Y921454D01*
X1201246Y921581D01*
X1201112Y921712D01*
X1200981Y921846D01*
X1200854Y921983D01*
X1200730Y922123D01*
X1200610Y922266D01*
X1200493Y922412D01*
X1200380Y922561D01*
X1200270Y922712D01*
X1200164Y922867D01*
X1200062Y923023D01*
X1199964Y923183D01*
X1199870Y923344D01*
X1199780Y923508D01*
X1199694Y923674D01*
X1199612Y923842D01*
X1199534Y924012D01*
X1199460Y924184D01*
X1199391Y924358D01*
X1199325Y924533D01*
X1199265Y924710D01*
X1199208Y924888D01*
X1199156Y925068D01*
X1199108Y925248D01*
X1199065Y925430D01*
X1199026Y925613D01*
X1198992Y925797D01*
X1198962Y925982D01*
X1198937Y926167D01*
X1198917Y926353D01*
X1198901Y926539D01*
X1198889Y926726D01*
X1198882Y926913D01*
X1198880Y927100D01*
D23*
X1206500Y927100D03*
D22*
X55880Y927100D02*
X55882Y927287D01*
X55889Y927474D01*
X55901Y927661D01*
X55917Y927847D01*
X55937Y928033D01*
X55962Y928218D01*
X55992Y928403D01*
X56026Y928587D01*
X56065Y928770D01*
X56108Y928952D01*
X56156Y929132D01*
X56208Y929312D01*
X56265Y929490D01*
X56325Y929667D01*
X56391Y929842D01*
X56460Y930016D01*
X56534Y930188D01*
X56612Y930358D01*
X56694Y930526D01*
X56780Y930692D01*
X56870Y930856D01*
X56964Y931017D01*
X57062Y931177D01*
X57164Y931333D01*
X57270Y931488D01*
X57380Y931639D01*
X57493Y931788D01*
X57610Y931934D01*
X57730Y932077D01*
X57854Y932217D01*
X57981Y932354D01*
X58112Y932488D01*
X58246Y932619D01*
X58383Y932746D01*
X58523Y932870D01*
X58666Y932990D01*
X58812Y933107D01*
X58961Y933220D01*
X59112Y933330D01*
X59267Y933436D01*
X59423Y933538D01*
X59583Y933636D01*
X59744Y933730D01*
X59908Y933820D01*
X60074Y933906D01*
X60242Y933988D01*
X60412Y934066D01*
X60584Y934140D01*
X60758Y934209D01*
X60933Y934275D01*
X61110Y934335D01*
X61288Y934392D01*
X61468Y934444D01*
X61648Y934492D01*
X61830Y934535D01*
X62013Y934574D01*
X62197Y934608D01*
X62382Y934638D01*
X62567Y934663D01*
X62753Y934683D01*
X62939Y934699D01*
X63126Y934711D01*
X63313Y934718D01*
X63500Y934720D01*
X63687Y934718D01*
X63874Y934711D01*
X64061Y934699D01*
X64247Y934683D01*
X64433Y934663D01*
X64618Y934638D01*
X64803Y934608D01*
X64987Y934574D01*
X65170Y934535D01*
X65352Y934492D01*
X65532Y934444D01*
X65712Y934392D01*
X65890Y934335D01*
X66067Y934275D01*
X66242Y934209D01*
X66416Y934140D01*
X66588Y934066D01*
X66758Y933988D01*
X66926Y933906D01*
X67092Y933820D01*
X67256Y933730D01*
X67417Y933636D01*
X67577Y933538D01*
X67733Y933436D01*
X67888Y933330D01*
X68039Y933220D01*
X68188Y933107D01*
X68334Y932990D01*
X68477Y932870D01*
X68617Y932746D01*
X68754Y932619D01*
X68888Y932488D01*
X69019Y932354D01*
X69146Y932217D01*
X69270Y932077D01*
X69390Y931934D01*
X69507Y931788D01*
X69620Y931639D01*
X69730Y931488D01*
X69836Y931333D01*
X69938Y931177D01*
X70036Y931017D01*
X70130Y930856D01*
X70220Y930692D01*
X70306Y930526D01*
X70388Y930358D01*
X70466Y930188D01*
X70540Y930016D01*
X70609Y929842D01*
X70675Y929667D01*
X70735Y929490D01*
X70792Y929312D01*
X70844Y929132D01*
X70892Y928952D01*
X70935Y928770D01*
X70974Y928587D01*
X71008Y928403D01*
X71038Y928218D01*
X71063Y928033D01*
X71083Y927847D01*
X71099Y927661D01*
X71111Y927474D01*
X71118Y927287D01*
X71120Y927100D01*
X71118Y926913D01*
X71111Y926726D01*
X71099Y926539D01*
X71083Y926353D01*
X71063Y926167D01*
X71038Y925982D01*
X71008Y925797D01*
X70974Y925613D01*
X70935Y925430D01*
X70892Y925248D01*
X70844Y925068D01*
X70792Y924888D01*
X70735Y924710D01*
X70675Y924533D01*
X70609Y924358D01*
X70540Y924184D01*
X70466Y924012D01*
X70388Y923842D01*
X70306Y923674D01*
X70220Y923508D01*
X70130Y923344D01*
X70036Y923183D01*
X69938Y923023D01*
X69836Y922867D01*
X69730Y922712D01*
X69620Y922561D01*
X69507Y922412D01*
X69390Y922266D01*
X69270Y922123D01*
X69146Y921983D01*
X69019Y921846D01*
X68888Y921712D01*
X68754Y921581D01*
X68617Y921454D01*
X68477Y921330D01*
X68334Y921210D01*
X68188Y921093D01*
X68039Y920980D01*
X67888Y920870D01*
X67733Y920764D01*
X67577Y920662D01*
X67417Y920564D01*
X67256Y920470D01*
X67092Y920380D01*
X66926Y920294D01*
X66758Y920212D01*
X66588Y920134D01*
X66416Y920060D01*
X66242Y919991D01*
X66067Y919925D01*
X65890Y919865D01*
X65712Y919808D01*
X65532Y919756D01*
X65352Y919708D01*
X65170Y919665D01*
X64987Y919626D01*
X64803Y919592D01*
X64618Y919562D01*
X64433Y919537D01*
X64247Y919517D01*
X64061Y919501D01*
X63874Y919489D01*
X63687Y919482D01*
X63500Y919480D01*
X63313Y919482D01*
X63126Y919489D01*
X62939Y919501D01*
X62753Y919517D01*
X62567Y919537D01*
X62382Y919562D01*
X62197Y919592D01*
X62013Y919626D01*
X61830Y919665D01*
X61648Y919708D01*
X61468Y919756D01*
X61288Y919808D01*
X61110Y919865D01*
X60933Y919925D01*
X60758Y919991D01*
X60584Y920060D01*
X60412Y920134D01*
X60242Y920212D01*
X60074Y920294D01*
X59908Y920380D01*
X59744Y920470D01*
X59583Y920564D01*
X59423Y920662D01*
X59267Y920764D01*
X59112Y920870D01*
X58961Y920980D01*
X58812Y921093D01*
X58666Y921210D01*
X58523Y921330D01*
X58383Y921454D01*
X58246Y921581D01*
X58112Y921712D01*
X57981Y921846D01*
X57854Y921983D01*
X57730Y922123D01*
X57610Y922266D01*
X57493Y922412D01*
X57380Y922561D01*
X57270Y922712D01*
X57164Y922867D01*
X57062Y923023D01*
X56964Y923183D01*
X56870Y923344D01*
X56780Y923508D01*
X56694Y923674D01*
X56612Y923842D01*
X56534Y924012D01*
X56460Y924184D01*
X56391Y924358D01*
X56325Y924533D01*
X56265Y924710D01*
X56208Y924888D01*
X56156Y925068D01*
X56108Y925248D01*
X56065Y925430D01*
X56026Y925613D01*
X55992Y925797D01*
X55962Y925982D01*
X55937Y926167D01*
X55917Y926353D01*
X55901Y926539D01*
X55889Y926726D01*
X55882Y926913D01*
X55880Y927100D01*
D23*
X63500Y927100D03*
D24*
X666750Y223200D03*
X666750Y310200D03*
M02*
